<?xml version="1.0" encoding="utf-8" standalone="no"?>
<!DOCTYPE svg PUBLIC "-//W3C//DTD SVG 1.1//EN"
  "http://www.w3.org/Graphics/SVG/1.1/DTD/svg11.dtd">
<svg xmlns:xlink="http://www.w3.org/1999/xlink" width="345.6pt" height="345.6pt" viewBox="0 0 345.6 345.6" xmlns="http://www.w3.org/2000/svg" version="1.1">
 <metadata>
  <rdf:RDF xmlns:dc="http://purl.org/dc/elements/1.1/" xmlns:cc="http://creativecommons.org/ns#" xmlns:rdf="http://www.w3.org/1999/02/22-rdf-syntax-ns#">
   <cc:Work>
    <dc:type rdf:resource="http://purl.org/dc/dcmitype/StillImage"/>
    <dc:date>2026-09-20T20:27:57.257333</dc:date>
    <dc:format>image/svg+xml</dc:format>
    <dc:creator>
     <cc:Agent>
      <dc:title>Matplotlib v3.10.8, https://matplotlib.org/</dc:title>
     </cc:Agent>
    </dc:creator>
   </cc:Work>
  </rdf:RDF>
 </metadata>
 <defs>
  <style type="text/css">*{stroke-linejoin: round; stroke-linecap: butt}</style>
 </defs>
 <g id="figure_1">
  <g id="patch_1">
   <path d="M 0 345.6 
L 345.6 345.6 
L 345.6 0 
L 0 0 
z
" style="fill: #ffffff"/>
  </g>
  <g id="axes_1">
   <g id="patch_2">
    <path d="M 58.383471 297.88 
L 334.8 297.88 
L 334.8 29.6 
L 58.383471 29.6 
z
" style="fill: #ffffff"/>
   </g>
   <g id="matplotlib.axis_1">
    <g id="xtick_1">
     <g id="line2d_1">
      <path d="M 69.039827 297.88 
L 69.039827 29.6 
" clip-path="url(#p1f00820797)" style="fill: none; stroke: #d9d5cb; stroke-opacity: 0.9; stroke-width: 0.7; stroke-linecap: square"/>
     </g>
     <g id="line2d_2">
      <defs>
       <path id="mf5958cbf29" d="M 0 0 
L 0 3.5 
" style="stroke: #1b2927; stroke-width: 0.8"/>
      </defs>
      <g>
       <use xlink:href="#mf5958cbf29" x="69.039827" y="297.88" style="fill: #1b2927; stroke: #1b2927; stroke-width: 0.8"/>
      </g>
     </g>
     <g id="text_1">
      <!-- 0 -->
      <g style="fill: #1b2927" transform="translate(64.865139 313.998125) scale(0.12 -0.12)">
       <defs>
        <path id="DejaVuSans-Bold-30" d="M 2944 2338 
Q 2944 3213 2780 3570 
Q 2616 3928 2228 3928 
Q 1841 3928 1675 3570 
Q 1509 3213 1509 2338 
Q 1509 1453 1675 1090 
Q 1841 728 2228 728 
Q 2613 728 2778 1090 
Q 2944 1453 2944 2338 
z
M 4147 2328 
Q 4147 1169 3647 539 
Q 3147 -91 2228 -91 
Q 1306 -91 806 539 
Q 306 1169 306 2328 
Q 306 3491 806 4120 
Q 1306 4750 2228 4750 
Q 3147 4750 3647 4120 
Q 4147 3491 4147 2328 
z
" transform="scale(0.015625)"/>
       </defs>
       <use xlink:href="#DejaVuSans-Bold-30"/>
      </g>
     </g>
    </g>
    <g id="xtick_2">
     <g id="line2d_3">
      <path d="M 116.740615 297.88 
L 116.740615 29.6 
" clip-path="url(#p1f00820797)" style="fill: none; stroke: #d9d5cb; stroke-opacity: 0.9; stroke-width: 0.7; stroke-linecap: square"/>
     </g>
     <g id="line2d_4">
      <g>
       <use xlink:href="#mf5958cbf29" x="116.740615" y="297.88" style="fill: #1b2927; stroke: #1b2927; stroke-width: 0.8"/>
      </g>
     </g>
     <g id="text_2">
      <!-- 250 -->
      <g style="fill: #1b2927" transform="translate(104.216553 313.998125) scale(0.12 -0.12)">
       <defs>
        <path id="DejaVuSans-Bold-32" d="M 1844 884 
L 3897 884 
L 3897 0 
L 506 0 
L 506 884 
L 2209 2388 
Q 2438 2594 2547 2791 
Q 2656 2988 2656 3200 
Q 2656 3528 2436 3728 
Q 2216 3928 1850 3928 
Q 1569 3928 1234 3808 
Q 900 3688 519 3450 
L 519 4475 
Q 925 4609 1322 4679 
Q 1719 4750 2100 4750 
Q 2938 4750 3402 4381 
Q 3866 4013 3866 3353 
Q 3866 2972 3669 2642 
Q 3472 2313 2841 1759 
L 1844 884 
z
" transform="scale(0.015625)"/>
        <path id="DejaVuSans-Bold-35" d="M 678 4666 
L 3669 4666 
L 3669 3781 
L 1638 3781 
L 1638 3059 
Q 1775 3097 1914 3117 
Q 2053 3138 2203 3138 
Q 3056 3138 3531 2711 
Q 4006 2284 4006 1522 
Q 4006 766 3489 337 
Q 2972 -91 2053 -91 
Q 1656 -91 1267 -14 
Q 878 63 494 219 
L 494 1166 
Q 875 947 1217 837 
Q 1559 728 1863 728 
Q 2300 728 2551 942 
Q 2803 1156 2803 1522 
Q 2803 1891 2551 2103 
Q 2300 2316 1863 2316 
Q 1603 2316 1309 2248 
Q 1016 2181 678 2041 
L 678 4666 
z
" transform="scale(0.015625)"/>
       </defs>
       <use xlink:href="#DejaVuSans-Bold-32"/>
       <use xlink:href="#DejaVuSans-Bold-35" transform="translate(69.580078 0)"/>
       <use xlink:href="#DejaVuSans-Bold-30" transform="translate(139.160156 0)"/>
      </g>
     </g>
    </g>
    <g id="xtick_3">
     <g id="line2d_5">
      <path d="M 164.441404 297.88 
L 164.441404 29.6 
" clip-path="url(#p1f00820797)" style="fill: none; stroke: #d9d5cb; stroke-opacity: 0.9; stroke-width: 0.7; stroke-linecap: square"/>
     </g>
     <g id="line2d_6">
      <g>
       <use xlink:href="#mf5958cbf29" x="164.441404" y="297.88" style="fill: #1b2927; stroke: #1b2927; stroke-width: 0.8"/>
      </g>
     </g>
     <g id="text_3">
      <!-- 500 -->
      <g style="fill: #1b2927" transform="translate(151.917341 313.998125) scale(0.12 -0.12)">
       <use xlink:href="#DejaVuSans-Bold-35"/>
       <use xlink:href="#DejaVuSans-Bold-30" transform="translate(69.580078 0)"/>
       <use xlink:href="#DejaVuSans-Bold-30" transform="translate(139.160156 0)"/>
      </g>
     </g>
    </g>
    <g id="xtick_4">
     <g id="line2d_7">
      <path d="M 212.142192 297.88 
L 212.142192 29.6 
" clip-path="url(#p1f00820797)" style="fill: none; stroke: #d9d5cb; stroke-opacity: 0.9; stroke-width: 0.7; stroke-linecap: square"/>
     </g>
     <g id="line2d_8">
      <g>
       <use xlink:href="#mf5958cbf29" x="212.142192" y="297.88" style="fill: #1b2927; stroke: #1b2927; stroke-width: 0.8"/>
      </g>
     </g>
     <g id="text_4">
      <!-- 750 -->
      <g style="fill: #1b2927" transform="translate(199.61813 313.998125) scale(0.12 -0.12)">
       <defs>
        <path id="DejaVuSans-Bold-37" d="M 428 4666 
L 3944 4666 
L 3944 3988 
L 2125 0 
L 953 0 
L 2675 3781 
L 428 3781 
L 428 4666 
z
" transform="scale(0.015625)"/>
       </defs>
       <use xlink:href="#DejaVuSans-Bold-37"/>
       <use xlink:href="#DejaVuSans-Bold-35" transform="translate(69.580078 0)"/>
       <use xlink:href="#DejaVuSans-Bold-30" transform="translate(139.160156 0)"/>
      </g>
     </g>
    </g>
    <g id="xtick_5">
     <g id="line2d_9">
      <path d="M 259.842981 297.88 
L 259.842981 29.6 
" clip-path="url(#p1f00820797)" style="fill: none; stroke: #d9d5cb; stroke-opacity: 0.9; stroke-width: 0.7; stroke-linecap: square"/>
     </g>
     <g id="line2d_10">
      <g>
       <use xlink:href="#mf5958cbf29" x="259.842981" y="297.88" style="fill: #1b2927; stroke: #1b2927; stroke-width: 0.8"/>
      </g>
     </g>
     <g id="text_5">
      <!-- 1000 -->
      <g style="fill: #1b2927" transform="translate(243.144231 313.998125) scale(0.12 -0.12)">
       <defs>
        <path id="DejaVuSans-Bold-31" d="M 750 831 
L 1813 831 
L 1813 3847 
L 722 3622 
L 722 4441 
L 1806 4666 
L 2950 4666 
L 2950 831 
L 4013 831 
L 4013 0 
L 750 0 
L 750 831 
z
" transform="scale(0.015625)"/>
       </defs>
       <use xlink:href="#DejaVuSans-Bold-31"/>
       <use xlink:href="#DejaVuSans-Bold-30" transform="translate(69.580078 0)"/>
       <use xlink:href="#DejaVuSans-Bold-30" transform="translate(139.160156 0)"/>
       <use xlink:href="#DejaVuSans-Bold-30" transform="translate(208.740234 0)"/>
      </g>
     </g>
    </g>
    <g id="xtick_6">
     <g id="line2d_11">
      <path d="M 307.543769 297.88 
L 307.543769 29.6 
" clip-path="url(#p1f00820797)" style="fill: none; stroke: #d9d5cb; stroke-opacity: 0.9; stroke-width: 0.7; stroke-linecap: square"/>
     </g>
     <g id="line2d_12">
      <g>
       <use xlink:href="#mf5958cbf29" x="307.543769" y="297.88" style="fill: #1b2927; stroke: #1b2927; stroke-width: 0.8"/>
      </g>
     </g>
     <g id="text_6">
      <!-- 1250 -->
      <g style="fill: #1b2927" transform="translate(290.845019 313.998125) scale(0.12 -0.12)">
       <use xlink:href="#DejaVuSans-Bold-31"/>
       <use xlink:href="#DejaVuSans-Bold-32" transform="translate(69.580078 0)"/>
       <use xlink:href="#DejaVuSans-Bold-35" transform="translate(139.160156 0)"/>
       <use xlink:href="#DejaVuSans-Bold-30" transform="translate(208.740234 0)"/>
      </g>
     </g>
    </g>
    <g id="text_7">
     <!-- Parsed Alethe commands -->
     <g style="fill: #1b2927" transform="translate(110.882673 329.611875) scale(0.12 -0.12)">
      <defs>
       <path id="DejaVuSans-Bold-50" d="M 588 4666 
L 2584 4666 
Q 3475 4666 3951 4270 
Q 4428 3875 4428 3144 
Q 4428 2409 3951 2014 
Q 3475 1619 2584 1619 
L 1791 1619 
L 1791 0 
L 588 0 
L 588 4666 
z
M 1791 3794 
L 1791 2491 
L 2456 2491 
Q 2806 2491 2997 2661 
Q 3188 2831 3188 3144 
Q 3188 3456 2997 3625 
Q 2806 3794 2456 3794 
L 1791 3794 
z
" transform="scale(0.015625)"/>
       <path id="DejaVuSans-Bold-61" d="M 2106 1575 
Q 1756 1575 1579 1456 
Q 1403 1338 1403 1106 
Q 1403 894 1545 773 
Q 1688 653 1941 653 
Q 2256 653 2472 879 
Q 2688 1106 2688 1447 
L 2688 1575 
L 2106 1575 
z
M 3816 1997 
L 3816 0 
L 2688 0 
L 2688 519 
Q 2463 200 2181 54 
Q 1900 -91 1497 -91 
Q 953 -91 614 226 
Q 275 544 275 1050 
Q 275 1666 698 1953 
Q 1122 2241 2028 2241 
L 2688 2241 
L 2688 2328 
Q 2688 2594 2478 2717 
Q 2269 2841 1825 2841 
Q 1466 2841 1156 2769 
Q 847 2697 581 2553 
L 581 3406 
Q 941 3494 1303 3539 
Q 1666 3584 2028 3584 
Q 2975 3584 3395 3211 
Q 3816 2838 3816 1997 
z
" transform="scale(0.015625)"/>
       <path id="DejaVuSans-Bold-72" d="M 3138 2547 
Q 2991 2616 2845 2648 
Q 2700 2681 2553 2681 
Q 2122 2681 1889 2404 
Q 1656 2128 1656 1613 
L 1656 0 
L 538 0 
L 538 3500 
L 1656 3500 
L 1656 2925 
Q 1872 3269 2151 3426 
Q 2431 3584 2822 3584 
Q 2878 3584 2943 3579 
Q 3009 3575 3134 3559 
L 3138 2547 
z
" transform="scale(0.015625)"/>
       <path id="DejaVuSans-Bold-73" d="M 3272 3391 
L 3272 2541 
Q 2913 2691 2578 2766 
Q 2244 2841 1947 2841 
Q 1628 2841 1473 2761 
Q 1319 2681 1319 2516 
Q 1319 2381 1436 2309 
Q 1553 2238 1856 2203 
L 2053 2175 
Q 2913 2066 3209 1816 
Q 3506 1566 3506 1031 
Q 3506 472 3093 190 
Q 2681 -91 1863 -91 
Q 1516 -91 1145 -36 
Q 775 19 384 128 
L 384 978 
Q 719 816 1070 734 
Q 1422 653 1784 653 
Q 2113 653 2278 743 
Q 2444 834 2444 1013 
Q 2444 1163 2330 1236 
Q 2216 1309 1875 1350 
L 1678 1375 
Q 931 1469 631 1722 
Q 331 1975 331 2491 
Q 331 3047 712 3315 
Q 1094 3584 1881 3584 
Q 2191 3584 2531 3537 
Q 2872 3491 3272 3391 
z
" transform="scale(0.015625)"/>
       <path id="DejaVuSans-Bold-65" d="M 4031 1759 
L 4031 1441 
L 1416 1441 
Q 1456 1047 1700 850 
Q 1944 653 2381 653 
Q 2734 653 3104 758 
Q 3475 863 3866 1075 
L 3866 213 
Q 3469 63 3072 -14 
Q 2675 -91 2278 -91 
Q 1328 -91 801 392 
Q 275 875 275 1747 
Q 275 2603 792 3093 
Q 1309 3584 2216 3584 
Q 3041 3584 3536 3087 
Q 4031 2591 4031 1759 
z
M 2881 2131 
Q 2881 2450 2695 2645 
Q 2509 2841 2209 2841 
Q 1884 2841 1681 2658 
Q 1478 2475 1428 2131 
L 2881 2131 
z
" transform="scale(0.015625)"/>
       <path id="DejaVuSans-Bold-64" d="M 2919 2988 
L 2919 4863 
L 4044 4863 
L 4044 0 
L 2919 0 
L 2919 506 
Q 2688 197 2409 53 
Q 2131 -91 1766 -91 
Q 1119 -91 703 423 
Q 288 938 288 1747 
Q 288 2556 703 3070 
Q 1119 3584 1766 3584 
Q 2128 3584 2408 3439 
Q 2688 3294 2919 2988 
z
M 2181 722 
Q 2541 722 2730 984 
Q 2919 1247 2919 1747 
Q 2919 2247 2730 2509 
Q 2541 2772 2181 2772 
Q 1825 2772 1636 2509 
Q 1447 2247 1447 1747 
Q 1447 1247 1636 984 
Q 1825 722 2181 722 
z
" transform="scale(0.015625)"/>
       <path id="DejaVuSans-Bold-20" transform="scale(0.015625)"/>
       <path id="DejaVuSans-Bold-41" d="M 3419 850 
L 1538 850 
L 1241 0 
L 31 0 
L 1759 4666 
L 3194 4666 
L 4922 0 
L 3713 0 
L 3419 850 
z
M 1838 1716 
L 3116 1716 
L 2478 3572 
L 1838 1716 
z
" transform="scale(0.015625)"/>
       <path id="DejaVuSans-Bold-6c" d="M 538 4863 
L 1656 4863 
L 1656 0 
L 538 0 
L 538 4863 
z
" transform="scale(0.015625)"/>
       <path id="DejaVuSans-Bold-74" d="M 1759 4494 
L 1759 3500 
L 2913 3500 
L 2913 2700 
L 1759 2700 
L 1759 1216 
Q 1759 972 1856 886 
Q 1953 800 2241 800 
L 2816 800 
L 2816 0 
L 1856 0 
Q 1194 0 917 276 
Q 641 553 641 1216 
L 641 2700 
L 84 2700 
L 84 3500 
L 641 3500 
L 641 4494 
L 1759 4494 
z
" transform="scale(0.015625)"/>
       <path id="DejaVuSans-Bold-68" d="M 4056 2131 
L 4056 0 
L 2931 0 
L 2931 347 
L 2931 1625 
Q 2931 2084 2911 2256 
Q 2891 2428 2841 2509 
Q 2775 2619 2662 2680 
Q 2550 2741 2406 2741 
Q 2056 2741 1856 2470 
Q 1656 2200 1656 1722 
L 1656 0 
L 538 0 
L 538 4863 
L 1656 4863 
L 1656 2988 
Q 1909 3294 2193 3439 
Q 2478 3584 2822 3584 
Q 3428 3584 3742 3212 
Q 4056 2841 4056 2131 
z
" transform="scale(0.015625)"/>
       <path id="DejaVuSans-Bold-63" d="M 3366 3391 
L 3366 2478 
Q 3138 2634 2908 2709 
Q 2678 2784 2431 2784 
Q 1963 2784 1702 2511 
Q 1441 2238 1441 1747 
Q 1441 1256 1702 982 
Q 1963 709 2431 709 
Q 2694 709 2930 787 
Q 3166 866 3366 1019 
L 3366 103 
Q 3103 6 2833 -42 
Q 2563 -91 2291 -91 
Q 1344 -91 809 395 
Q 275 881 275 1747 
Q 275 2613 809 3098 
Q 1344 3584 2291 3584 
Q 2566 3584 2833 3536 
Q 3100 3488 3366 3391 
z
" transform="scale(0.015625)"/>
       <path id="DejaVuSans-Bold-6f" d="M 2203 2784 
Q 1831 2784 1636 2517 
Q 1441 2250 1441 1747 
Q 1441 1244 1636 976 
Q 1831 709 2203 709 
Q 2569 709 2762 976 
Q 2956 1244 2956 1747 
Q 2956 2250 2762 2517 
Q 2569 2784 2203 2784 
z
M 2203 3584 
Q 3106 3584 3614 3096 
Q 4122 2609 4122 1747 
Q 4122 884 3614 396 
Q 3106 -91 2203 -91 
Q 1297 -91 786 396 
Q 275 884 275 1747 
Q 275 2609 786 3096 
Q 1297 3584 2203 3584 
z
" transform="scale(0.015625)"/>
       <path id="DejaVuSans-Bold-6d" d="M 3781 2919 
Q 3994 3244 4286 3414 
Q 4578 3584 4928 3584 
Q 5531 3584 5847 3212 
Q 6163 2841 6163 2131 
L 6163 0 
L 5038 0 
L 5038 1825 
Q 5041 1866 5042 1909 
Q 5044 1953 5044 2034 
Q 5044 2406 4934 2573 
Q 4825 2741 4581 2741 
Q 4263 2741 4089 2478 
Q 3916 2216 3909 1719 
L 3909 0 
L 2784 0 
L 2784 1825 
Q 2784 2406 2684 2573 
Q 2584 2741 2328 2741 
Q 2006 2741 1831 2477 
Q 1656 2213 1656 1722 
L 1656 0 
L 531 0 
L 531 3500 
L 1656 3500 
L 1656 2988 
Q 1863 3284 2130 3434 
Q 2397 3584 2719 3584 
Q 3081 3584 3359 3409 
Q 3638 3234 3781 2919 
z
" transform="scale(0.015625)"/>
       <path id="DejaVuSans-Bold-6e" d="M 4056 2131 
L 4056 0 
L 2931 0 
L 2931 347 
L 2931 1631 
Q 2931 2084 2911 2256 
Q 2891 2428 2841 2509 
Q 2775 2619 2662 2680 
Q 2550 2741 2406 2741 
Q 2056 2741 1856 2470 
Q 1656 2200 1656 1722 
L 1656 0 
L 538 0 
L 538 3500 
L 1656 3500 
L 1656 2988 
Q 1909 3294 2193 3439 
Q 2478 3584 2822 3584 
Q 3428 3584 3742 3212 
Q 4056 2841 4056 2131 
z
" transform="scale(0.015625)"/>
      </defs>
      <use xlink:href="#DejaVuSans-Bold-50"/>
      <use xlink:href="#DejaVuSans-Bold-61" transform="translate(70.666016 0)"/>
      <use xlink:href="#DejaVuSans-Bold-72" transform="translate(138.146484 0)"/>
      <use xlink:href="#DejaVuSans-Bold-73" transform="translate(187.462891 0)"/>
      <use xlink:href="#DejaVuSans-Bold-65" transform="translate(246.984375 0)"/>
      <use xlink:href="#DejaVuSans-Bold-64" transform="translate(314.806641 0)"/>
      <use xlink:href="#DejaVuSans-Bold-20" transform="translate(386.388672 0)"/>
      <use xlink:href="#DejaVuSans-Bold-41" transform="translate(421.203125 0)"/>
      <use xlink:href="#DejaVuSans-Bold-6c" transform="translate(498.595703 0)"/>
      <use xlink:href="#DejaVuSans-Bold-65" transform="translate(532.873047 0)"/>
      <use xlink:href="#DejaVuSans-Bold-74" transform="translate(600.695312 0)"/>
      <use xlink:href="#DejaVuSans-Bold-68" transform="translate(648.498047 0)"/>
      <use xlink:href="#DejaVuSans-Bold-65" transform="translate(719.689453 0)"/>
      <use xlink:href="#DejaVuSans-Bold-20" transform="translate(787.511719 0)"/>
      <use xlink:href="#DejaVuSans-Bold-63" transform="translate(822.326172 0)"/>
      <use xlink:href="#DejaVuSans-Bold-6f" transform="translate(881.603516 0)"/>
      <use xlink:href="#DejaVuSans-Bold-6d" transform="translate(950.304688 0)"/>
      <use xlink:href="#DejaVuSans-Bold-6d" transform="translate(1054.503906 0)"/>
      <use xlink:href="#DejaVuSans-Bold-61" transform="translate(1158.703125 0)"/>
      <use xlink:href="#DejaVuSans-Bold-6e" transform="translate(1226.183594 0)"/>
      <use xlink:href="#DejaVuSans-Bold-64" transform="translate(1297.375 0)"/>
      <use xlink:href="#DejaVuSans-Bold-73" transform="translate(1368.957031 0)"/>
     </g>
    </g>
   </g>
   <g id="matplotlib.axis_2">
    <g id="ytick_1">
     <g id="line2d_13">
      <path d="M 58.383471 239.515497 
L 334.8 239.515497 
" clip-path="url(#p1f00820797)" style="fill: none; stroke: #d9d5cb; stroke-opacity: 0.9; stroke-width: 0.7; stroke-linecap: square"/>
     </g>
     <g id="line2d_14">
      <defs>
       <path id="m441968dba6" d="M 0 0 
L -3.5 0 
" style="stroke: #1b2927; stroke-width: 0.8"/>
      </defs>
      <g>
       <use xlink:href="#m441968dba6" x="58.383471" y="239.515497" style="fill: #1b2927; stroke: #1b2927; stroke-width: 0.8"/>
      </g>
     </g>
     <g id="text_8">
      <!-- $\mathdefault{10^{2}}$ -->
      <g style="fill: #1b2927" transform="translate(28.343471 244.074559) scale(0.12 -0.12)">
       <use xlink:href="#DejaVuSans-Bold-31" transform="translate(0 0.765625)"/>
       <use xlink:href="#DejaVuSans-Bold-30" transform="translate(69.580078 0.765625)"/>
       <use xlink:href="#DejaVuSans-Bold-32" transform="translate(140.117188 39.046875) scale(0.7)"/>
      </g>
     </g>
    </g>
    <g id="ytick_2">
     <g id="line2d_15">
      <path d="M 58.383471 150.789756 
L 334.8 150.789756 
" clip-path="url(#p1f00820797)" style="fill: none; stroke: #d9d5cb; stroke-opacity: 0.9; stroke-width: 0.7; stroke-linecap: square"/>
     </g>
     <g id="line2d_16">
      <g>
       <use xlink:href="#m441968dba6" x="58.383471" y="150.789756" style="fill: #1b2927; stroke: #1b2927; stroke-width: 0.8"/>
      </g>
     </g>
     <g id="text_9">
      <!-- $\mathdefault{10^{3}}$ -->
      <g style="fill: #1b2927" transform="translate(28.343471 155.348819) scale(0.12 -0.12)">
       <defs>
        <path id="DejaVuSans-Bold-33" d="M 2981 2516 
Q 3453 2394 3698 2092 
Q 3944 1791 3944 1325 
Q 3944 631 3412 270 
Q 2881 -91 1863 -91 
Q 1503 -91 1142 -33 
Q 781 25 428 141 
L 428 1069 
Q 766 900 1098 814 
Q 1431 728 1753 728 
Q 2231 728 2486 893 
Q 2741 1059 2741 1369 
Q 2741 1688 2480 1852 
Q 2219 2016 1709 2016 
L 1228 2016 
L 1228 2791 
L 1734 2791 
Q 2188 2791 2409 2933 
Q 2631 3075 2631 3366 
Q 2631 3634 2415 3781 
Q 2200 3928 1806 3928 
Q 1516 3928 1219 3862 
Q 922 3797 628 3669 
L 628 4550 
Q 984 4650 1334 4700 
Q 1684 4750 2022 4750 
Q 2931 4750 3382 4451 
Q 3834 4153 3834 3553 
Q 3834 3144 3618 2883 
Q 3403 2622 2981 2516 
z
" transform="scale(0.015625)"/>
       </defs>
       <use xlink:href="#DejaVuSans-Bold-31" transform="translate(0 0.765625)"/>
       <use xlink:href="#DejaVuSans-Bold-30" transform="translate(69.580078 0.765625)"/>
       <use xlink:href="#DejaVuSans-Bold-33" transform="translate(140.117188 39.046875) scale(0.7)"/>
      </g>
     </g>
    </g>
    <g id="ytick_3">
     <g id="line2d_17">
      <path d="M 58.383471 62.064016 
L 334.8 62.064016 
" clip-path="url(#p1f00820797)" style="fill: none; stroke: #d9d5cb; stroke-opacity: 0.9; stroke-width: 0.7; stroke-linecap: square"/>
     </g>
     <g id="line2d_18">
      <g>
       <use xlink:href="#m441968dba6" x="58.383471" y="62.064016" style="fill: #1b2927; stroke: #1b2927; stroke-width: 0.8"/>
      </g>
     </g>
     <g id="text_10">
      <!-- $\mathdefault{10^{4}}$ -->
      <g style="fill: #1b2927" transform="translate(28.343471 66.623078) scale(0.12 -0.12)">
       <defs>
        <path id="DejaVuSans-Bold-34" d="M 2356 3675 
L 1038 1722 
L 2356 1722 
L 2356 3675 
z
M 2156 4666 
L 3494 4666 
L 3494 1722 
L 4159 1722 
L 4159 850 
L 3494 850 
L 3494 0 
L 2356 0 
L 2356 850 
L 288 850 
L 288 1881 
L 2156 4666 
z
" transform="scale(0.015625)"/>
       </defs>
       <use xlink:href="#DejaVuSans-Bold-31" transform="translate(0 0.684375)"/>
       <use xlink:href="#DejaVuSans-Bold-30" transform="translate(69.580078 0.684375)"/>
       <use xlink:href="#DejaVuSans-Bold-34" transform="translate(140.117188 38.965625) scale(0.7)"/>
      </g>
     </g>
    </g>
    <g id="ytick_4">
     <g id="line2d_19">
      <defs>
       <path id="mb014d913dc" d="M 0 0 
L -2 0 
" style="stroke: #000000; stroke-width: 0.6"/>
      </defs>
      <g>
       <use xlink:href="#mb014d913dc" x="58.383471" y="285.908301" style="stroke: #000000; stroke-width: 0.6"/>
      </g>
     </g>
    </g>
    <g id="ytick_5">
     <g id="line2d_20">
      <g>
       <use xlink:href="#mb014d913dc" x="58.383471" y="274.823019" style="stroke: #000000; stroke-width: 0.6"/>
      </g>
     </g>
    </g>
    <g id="ytick_6">
     <g id="line2d_21">
      <g>
       <use xlink:href="#mb014d913dc" x="58.383471" y="266.224606" style="stroke: #000000; stroke-width: 0.6"/>
      </g>
     </g>
    </g>
    <g id="ytick_7">
     <g id="line2d_22">
      <g>
       <use xlink:href="#mb014d913dc" x="58.383471" y="259.199192" style="stroke: #000000; stroke-width: 0.6"/>
      </g>
     </g>
    </g>
    <g id="ytick_8">
     <g id="line2d_23">
      <g>
       <use xlink:href="#mb014d913dc" x="58.383471" y="253.259288" style="stroke: #000000; stroke-width: 0.6"/>
      </g>
     </g>
    </g>
    <g id="ytick_9">
     <g id="line2d_24">
      <g>
       <use xlink:href="#mb014d913dc" x="58.383471" y="248.11391" style="stroke: #000000; stroke-width: 0.6"/>
      </g>
     </g>
    </g>
    <g id="ytick_10">
     <g id="line2d_25">
      <g>
       <use xlink:href="#mb014d913dc" x="58.383471" y="243.575364" style="stroke: #000000; stroke-width: 0.6"/>
      </g>
     </g>
    </g>
    <g id="ytick_11">
     <g id="line2d_26">
      <g>
       <use xlink:href="#mb014d913dc" x="58.383471" y="212.806388" style="stroke: #000000; stroke-width: 0.6"/>
      </g>
     </g>
    </g>
    <g id="ytick_12">
     <g id="line2d_27">
      <g>
       <use xlink:href="#mb014d913dc" x="58.383471" y="197.18256" style="stroke: #000000; stroke-width: 0.6"/>
      </g>
     </g>
    </g>
    <g id="ytick_13">
     <g id="line2d_28">
      <g>
       <use xlink:href="#mb014d913dc" x="58.383471" y="186.097278" style="stroke: #000000; stroke-width: 0.6"/>
      </g>
     </g>
    </g>
    <g id="ytick_14">
     <g id="line2d_29">
      <g>
       <use xlink:href="#mb014d913dc" x="58.383471" y="177.498866" style="stroke: #000000; stroke-width: 0.6"/>
      </g>
     </g>
    </g>
    <g id="ytick_15">
     <g id="line2d_30">
      <g>
       <use xlink:href="#mb014d913dc" x="58.383471" y="170.473451" style="stroke: #000000; stroke-width: 0.6"/>
      </g>
     </g>
    </g>
    <g id="ytick_16">
     <g id="line2d_31">
      <g>
       <use xlink:href="#mb014d913dc" x="58.383471" y="164.533547" style="stroke: #000000; stroke-width: 0.6"/>
      </g>
     </g>
    </g>
    <g id="ytick_17">
     <g id="line2d_32">
      <g>
       <use xlink:href="#mb014d913dc" x="58.383471" y="159.388169" style="stroke: #000000; stroke-width: 0.6"/>
      </g>
     </g>
    </g>
    <g id="ytick_18">
     <g id="line2d_33">
      <g>
       <use xlink:href="#mb014d913dc" x="58.383471" y="154.849624" style="stroke: #000000; stroke-width: 0.6"/>
      </g>
     </g>
    </g>
    <g id="ytick_19">
     <g id="line2d_34">
      <g>
       <use xlink:href="#mb014d913dc" x="58.383471" y="124.080647" style="stroke: #000000; stroke-width: 0.6"/>
      </g>
     </g>
    </g>
    <g id="ytick_20">
     <g id="line2d_35">
      <g>
       <use xlink:href="#mb014d913dc" x="58.383471" y="108.45682" style="stroke: #000000; stroke-width: 0.6"/>
      </g>
     </g>
    </g>
    <g id="ytick_21">
     <g id="line2d_36">
      <g>
       <use xlink:href="#mb014d913dc" x="58.383471" y="97.371538" style="stroke: #000000; stroke-width: 0.6"/>
      </g>
     </g>
    </g>
    <g id="ytick_22">
     <g id="line2d_37">
      <g>
       <use xlink:href="#mb014d913dc" x="58.383471" y="88.773125" style="stroke: #000000; stroke-width: 0.6"/>
      </g>
     </g>
    </g>
    <g id="ytick_23">
     <g id="line2d_38">
      <g>
       <use xlink:href="#mb014d913dc" x="58.383471" y="81.74771" style="stroke: #000000; stroke-width: 0.6"/>
      </g>
     </g>
    </g>
    <g id="ytick_24">
     <g id="line2d_39">
      <g>
       <use xlink:href="#mb014d913dc" x="58.383471" y="75.807807" style="stroke: #000000; stroke-width: 0.6"/>
      </g>
     </g>
    </g>
    <g id="ytick_25">
     <g id="line2d_40">
      <g>
       <use xlink:href="#mb014d913dc" x="58.383471" y="70.662428" style="stroke: #000000; stroke-width: 0.6"/>
      </g>
     </g>
    </g>
    <g id="ytick_26">
     <g id="line2d_41">
      <g>
       <use xlink:href="#mb014d913dc" x="58.383471" y="66.123883" style="stroke: #000000; stroke-width: 0.6"/>
      </g>
     </g>
    </g>
    <g id="ytick_27">
     <g id="line2d_42">
      <g>
       <use xlink:href="#mb014d913dc" x="58.383471" y="35.354906" style="stroke: #000000; stroke-width: 0.6"/>
      </g>
     </g>
    </g>
    <g id="text_11">
     <!-- Replay time (ms) -->
     <g style="fill: #1b2927" transform="translate(21.754096 221.285625) rotate(-90) scale(0.12 -0.12)">
      <defs>
       <path id="DejaVuSans-Bold-52" d="M 2297 2597 
Q 2675 2597 2839 2737 
Q 3003 2878 3003 3200 
Q 3003 3519 2839 3656 
Q 2675 3794 2297 3794 
L 1791 3794 
L 1791 2597 
L 2297 2597 
z
M 1791 1766 
L 1791 0 
L 588 0 
L 588 4666 
L 2425 4666 
Q 3347 4666 3776 4356 
Q 4206 4047 4206 3378 
Q 4206 2916 3982 2619 
Q 3759 2322 3309 2181 
Q 3556 2125 3751 1926 
Q 3947 1728 4147 1325 
L 4800 0 
L 3519 0 
L 2950 1159 
Q 2778 1509 2601 1637 
Q 2425 1766 2131 1766 
L 1791 1766 
z
" transform="scale(0.015625)"/>
       <path id="DejaVuSans-Bold-70" d="M 1656 506 
L 1656 -1331 
L 538 -1331 
L 538 3500 
L 1656 3500 
L 1656 2988 
Q 1888 3294 2169 3439 
Q 2450 3584 2816 3584 
Q 3463 3584 3878 3070 
Q 4294 2556 4294 1747 
Q 4294 938 3878 423 
Q 3463 -91 2816 -91 
Q 2450 -91 2169 54 
Q 1888 200 1656 506 
z
M 2400 2772 
Q 2041 2772 1848 2508 
Q 1656 2244 1656 1747 
Q 1656 1250 1848 986 
Q 2041 722 2400 722 
Q 2759 722 2948 984 
Q 3138 1247 3138 1747 
Q 3138 2247 2948 2509 
Q 2759 2772 2400 2772 
z
" transform="scale(0.015625)"/>
       <path id="DejaVuSans-Bold-79" d="M 78 3500 
L 1197 3500 
L 2138 1125 
L 2938 3500 
L 4056 3500 
L 2584 -331 
Q 2363 -916 2067 -1148 
Q 1772 -1381 1288 -1381 
L 641 -1381 
L 641 -647 
L 991 -647 
Q 1275 -647 1404 -556 
Q 1534 -466 1606 -231 
L 1638 -134 
L 78 3500 
z
" transform="scale(0.015625)"/>
       <path id="DejaVuSans-Bold-69" d="M 538 3500 
L 1656 3500 
L 1656 0 
L 538 0 
L 538 3500 
z
M 538 4863 
L 1656 4863 
L 1656 3950 
L 538 3950 
L 538 4863 
z
" transform="scale(0.015625)"/>
       <path id="DejaVuSans-Bold-28" d="M 2413 -844 
L 1484 -844 
Q 1006 -72 778 623 
Q 550 1319 550 2003 
Q 550 2688 779 3389 
Q 1009 4091 1484 4856 
L 2413 4856 
Q 2013 4116 1813 3408 
Q 1613 2700 1613 2009 
Q 1613 1319 1811 609 
Q 2009 -100 2413 -844 
z
" transform="scale(0.015625)"/>
       <path id="DejaVuSans-Bold-29" d="M 513 -844 
Q 913 -100 1113 609 
Q 1313 1319 1313 2009 
Q 1313 2700 1113 3408 
Q 913 4116 513 4856 
L 1441 4856 
Q 1916 4091 2145 3389 
Q 2375 2688 2375 2003 
Q 2375 1319 2147 623 
Q 1919 -72 1441 -844 
L 513 -844 
z
" transform="scale(0.015625)"/>
      </defs>
      <use xlink:href="#DejaVuSans-Bold-52"/>
      <use xlink:href="#DejaVuSans-Bold-65" transform="translate(77.001953 0)"/>
      <use xlink:href="#DejaVuSans-Bold-70" transform="translate(144.824219 0)"/>
      <use xlink:href="#DejaVuSans-Bold-6c" transform="translate(216.40625 0)"/>
      <use xlink:href="#DejaVuSans-Bold-61" transform="translate(250.683594 0)"/>
      <use xlink:href="#DejaVuSans-Bold-79" transform="translate(315.039062 0)"/>
      <use xlink:href="#DejaVuSans-Bold-20" transform="translate(380.224609 0)"/>
      <use xlink:href="#DejaVuSans-Bold-74" transform="translate(415.039062 0)"/>
      <use xlink:href="#DejaVuSans-Bold-69" transform="translate(462.841797 0)"/>
      <use xlink:href="#DejaVuSans-Bold-6d" transform="translate(497.119141 0)"/>
      <use xlink:href="#DejaVuSans-Bold-65" transform="translate(601.318359 0)"/>
      <use xlink:href="#DejaVuSans-Bold-20" transform="translate(669.140625 0)"/>
      <use xlink:href="#DejaVuSans-Bold-28" transform="translate(703.955078 0)"/>
      <use xlink:href="#DejaVuSans-Bold-6d" transform="translate(749.658203 0)"/>
      <use xlink:href="#DejaVuSans-Bold-73" transform="translate(853.857422 0)"/>
      <use xlink:href="#DejaVuSans-Bold-29" transform="translate(913.378906 0)"/>
     </g>
    </g>
   </g>
   <g id="patch_3">
    <path d="M 58.383471 297.88 
L 58.383471 29.6 
" style="fill: none; stroke: #d9d5cb; stroke-width: 0.8; stroke-linejoin: miter; stroke-linecap: square"/>
   </g>
   <g id="patch_4">
    <path d="M 58.383471 297.88 
L 334.8 297.88 
" style="fill: none; stroke: #d9d5cb; stroke-width: 0.8; stroke-linejoin: miter; stroke-linecap: square"/>
   </g>
   <g id="PathCollection_1">
    <defs>
     <path id="mf94312069b" d="M 0 2.915476 
C 0.773193 2.915476 1.514823 2.608283 2.061553 2.061553 
C 2.608283 1.514823 2.915476 0.773193 2.915476 0 
C 2.915476 -0.773193 2.608283 -1.514823 2.061553 -2.061553 
C 1.514823 -2.608283 0.773193 -2.915476 0 -2.915476 
C -0.773193 -2.915476 -1.514823 -2.608283 -2.061553 -2.061553 
C -2.608283 -1.514823 -2.915476 -0.773193 -2.915476 0 
C -2.915476 0.773193 -2.608283 1.514823 -2.061553 2.061553 
C -1.514823 2.608283 -0.773193 2.915476 0 2.915476 
z
" style="stroke: #ffffff; stroke-width: 0.8"/>
    </defs>
    <g clip-path="url(#p1f00820797)">
     <use xlink:href="#mf94312069b" x="70.947858" y="256.173632" style="fill: #e69f00; stroke: #ffffff; stroke-width: 0.8"/>
     <use xlink:href="#mf94312069b" x="70.947858" y="144.538522" style="fill: #e69f00; stroke: #ffffff; stroke-width: 0.8"/>
     <use xlink:href="#mf94312069b" x="71.138662" y="275.91833" style="fill: #e69f00; stroke: #ffffff; stroke-width: 0.8"/>
     <use xlink:href="#mf94312069b" x="71.138662" y="265.588692" style="fill: #e69f00; stroke: #ffffff; stroke-width: 0.8"/>
     <use xlink:href="#mf94312069b" x="71.329465" y="146.582612" style="fill: #e69f00; stroke: #ffffff; stroke-width: 0.8"/>
     <use xlink:href="#mf94312069b" x="71.520268" y="279.379511" style="fill: #e69f00; stroke: #ffffff; stroke-width: 0.8"/>
     <use xlink:href="#mf94312069b" x="71.520268" y="264.296892" style="fill: #e69f00; stroke: #ffffff; stroke-width: 0.8"/>
     <use xlink:href="#mf94312069b" x="71.520268" y="145.608727" style="fill: #e69f00; stroke: #ffffff; stroke-width: 0.8"/>
     <use xlink:href="#mf94312069b" x="71.711071" y="145.028377" style="fill: #e69f00; stroke: #ffffff; stroke-width: 0.8"/>
     <use xlink:href="#mf94312069b" x="71.901874" y="143.558547" style="fill: #e69f00; stroke: #ffffff; stroke-width: 0.8"/>
     <use xlink:href="#mf94312069b" x="71.901874" y="285.685455" style="fill: #e69f00; stroke: #ffffff; stroke-width: 0.8"/>
     <use xlink:href="#mf94312069b" x="71.901874" y="285.527427" style="fill: #e69f00; stroke: #ffffff; stroke-width: 0.8"/>
     <use xlink:href="#mf94312069b" x="71.901874" y="262.531698" style="fill: #e69f00; stroke: #ffffff; stroke-width: 0.8"/>
     <use xlink:href="#mf94312069b" x="72.092677" y="232.065356" style="fill: #e69f00; stroke: #ffffff; stroke-width: 0.8"/>
     <use xlink:href="#mf94312069b" x="72.28348" y="232.893898" style="fill: #e69f00; stroke: #ffffff; stroke-width: 0.8"/>
     <use xlink:href="#mf94312069b" x="72.474284" y="233.483445" style="fill: #e69f00; stroke: #ffffff; stroke-width: 0.8"/>
     <use xlink:href="#mf94312069b" x="72.474284" y="146.303857" style="fill: #e69f00; stroke: #ffffff; stroke-width: 0.8"/>
     <use xlink:href="#mf94312069b" x="72.665087" y="234.688267" style="fill: #e69f00; stroke: #ffffff; stroke-width: 0.8"/>
     <use xlink:href="#mf94312069b" x="73.237496" y="138.745596" style="fill: #e69f00; stroke: #ffffff; stroke-width: 0.8"/>
     <use xlink:href="#mf94312069b" x="73.428299" y="145.286798" style="fill: #e69f00; stroke: #ffffff; stroke-width: 0.8"/>
     <use xlink:href="#mf94312069b" x="73.619103" y="231.621393" style="fill: #e69f00; stroke: #ffffff; stroke-width: 0.8"/>
     <use xlink:href="#mf94312069b" x="73.619103" y="251.604291" style="fill: #e69f00; stroke: #ffffff; stroke-width: 0.8"/>
     <use xlink:href="#mf94312069b" x="73.809906" y="242.234468" style="fill: #e69f00; stroke: #ffffff; stroke-width: 0.8"/>
     <use xlink:href="#mf94312069b" x="73.809906" y="245.78783" style="fill: #e69f00; stroke: #ffffff; stroke-width: 0.8"/>
     <use xlink:href="#mf94312069b" x="74.000709" y="144.491537" style="fill: #e69f00; stroke: #ffffff; stroke-width: 0.8"/>
     <use xlink:href="#mf94312069b" x="74.573118" y="233.561284" style="fill: #e69f00; stroke: #ffffff; stroke-width: 0.8"/>
     <use xlink:href="#mf94312069b" x="74.763921" y="216.446823" style="fill: #e69f00; stroke: #ffffff; stroke-width: 0.8"/>
     <use xlink:href="#mf94312069b" x="75.336331" y="204.881372" style="fill: #e69f00; stroke: #ffffff; stroke-width: 0.8"/>
     <use xlink:href="#mf94312069b" x="75.336331" y="139.431081" style="fill: #e69f00; stroke: #ffffff; stroke-width: 0.8"/>
     <use xlink:href="#mf94312069b" x="75.336331" y="140.543616" style="fill: #e69f00; stroke: #ffffff; stroke-width: 0.8"/>
     <use xlink:href="#mf94312069b" x="76.862756" y="140.118114" style="fill: #e69f00; stroke: #ffffff; stroke-width: 0.8"/>
     <use xlink:href="#mf94312069b" x="76.862756" y="140.179595" style="fill: #e69f00; stroke: #ffffff; stroke-width: 0.8"/>
     <use xlink:href="#mf94312069b" x="77.625969" y="136.901187" style="fill: #e69f00; stroke: #ffffff; stroke-width: 0.8"/>
     <use xlink:href="#mf94312069b" x="77.816772" y="178.302039" style="fill: #e69f00; stroke: #ffffff; stroke-width: 0.8"/>
     <use xlink:href="#mf94312069b" x="78.389181" y="135.436506" style="fill: #e69f00; stroke: #ffffff; stroke-width: 0.8"/>
     <use xlink:href="#mf94312069b" x="78.389181" y="217.107196" style="fill: #e69f00; stroke: #ffffff; stroke-width: 0.8"/>
     <use xlink:href="#mf94312069b" x="79.343197" y="141.638267" style="fill: #e69f00; stroke: #ffffff; stroke-width: 0.8"/>
     <use xlink:href="#mf94312069b" x="81.632835" y="213.370772" style="fill: #e69f00; stroke: #ffffff; stroke-width: 0.8"/>
     <use xlink:href="#mf94312069b" x="84.304079" y="165.916357" style="fill: #e69f00; stroke: #ffffff; stroke-width: 0.8"/>
     <use xlink:href="#mf94312069b" x="84.876489" y="205.47489" style="fill: #e69f00; stroke: #ffffff; stroke-width: 0.8"/>
     <use xlink:href="#mf94312069b" x="85.067292" y="209.770617" style="fill: #e69f00; stroke: #ffffff; stroke-width: 0.8"/>
     <use xlink:href="#mf94312069b" x="85.067292" y="201.475902" style="fill: #e69f00; stroke: #ffffff; stroke-width: 0.8"/>
     <use xlink:href="#mf94312069b" x="86.021308" y="204.276316" style="fill: #e69f00; stroke: #ffffff; stroke-width: 0.8"/>
     <use xlink:href="#mf94312069b" x="86.212111" y="134.510336" style="fill: #e69f00; stroke: #ffffff; stroke-width: 0.8"/>
     <use xlink:href="#mf94312069b" x="87.738536" y="123.301387" style="fill: #e69f00; stroke: #ffffff; stroke-width: 0.8"/>
     <use xlink:href="#mf94312069b" x="88.883355" y="200.344308" style="fill: #e69f00; stroke: #ffffff; stroke-width: 0.8"/>
     <use xlink:href="#mf94312069b" x="89.264961" y="143.773173" style="fill: #e69f00; stroke: #ffffff; stroke-width: 0.8"/>
     <use xlink:href="#mf94312069b" x="90.028174" y="155.792409" style="fill: #e69f00; stroke: #ffffff; stroke-width: 0.8"/>
     <use xlink:href="#mf94312069b" x="92.127008" y="181.592143" style="fill: #e69f00; stroke: #ffffff; stroke-width: 0.8"/>
     <use xlink:href="#mf94312069b" x="93.271827" y="138.4306" style="fill: #e69f00; stroke: #ffffff; stroke-width: 0.8"/>
     <use xlink:href="#mf94312069b" x="93.462631" y="189.061928" style="fill: #e69f00; stroke: #ffffff; stroke-width: 0.8"/>
     <use xlink:href="#mf94312069b" x="93.462631" y="189.147229" style="fill: #e69f00; stroke: #ffffff; stroke-width: 0.8"/>
     <use xlink:href="#mf94312069b" x="93.653434" y="181.973432" style="fill: #e69f00; stroke: #ffffff; stroke-width: 0.8"/>
     <use xlink:href="#mf94312069b" x="94.60745" y="195.584909" style="fill: #e69f00; stroke: #ffffff; stroke-width: 0.8"/>
     <use xlink:href="#mf94312069b" x="95.179859" y="137.565569" style="fill: #e69f00; stroke: #ffffff; stroke-width: 0.8"/>
     <use xlink:href="#mf94312069b" x="96.706284" y="142.737464" style="fill: #e69f00; stroke: #ffffff; stroke-width: 0.8"/>
     <use xlink:href="#mf94312069b" x="97.087891" y="193.968303" style="fill: #e69f00; stroke: #ffffff; stroke-width: 0.8"/>
     <use xlink:href="#mf94312069b" x="97.851103" y="128.060598" style="fill: #e69f00; stroke: #ffffff; stroke-width: 0.8"/>
     <use xlink:href="#mf94312069b" x="110.825718" y="176.540241" style="fill: #e69f00; stroke: #ffffff; stroke-width: 0.8"/>
     <use xlink:href="#mf94312069b" x="112.542946" y="103.90356" style="fill: #e69f00; stroke: #ffffff; stroke-width: 0.8"/>
     <use xlink:href="#mf94312069b" x="112.542946" y="105.471083" style="fill: #e69f00; stroke: #ffffff; stroke-width: 0.8"/>
     <use xlink:href="#mf94312069b" x="112.733749" y="116.866817" style="fill: #e69f00; stroke: #ffffff; stroke-width: 0.8"/>
     <use xlink:href="#mf94312069b" x="117.122222" y="152.418186" style="fill: #e69f00; stroke: #ffffff; stroke-width: 0.8"/>
     <use xlink:href="#mf94312069b" x="117.313025" y="152.568532" style="fill: #e69f00; stroke: #ffffff; stroke-width: 0.8"/>
     <use xlink:href="#mf94312069b" x="121.510694" y="146.008108" style="fill: #e69f00; stroke: #ffffff; stroke-width: 0.8"/>
     <use xlink:href="#mf94312069b" x="124.754348" y="116.02726" style="fill: #e69f00; stroke: #ffffff; stroke-width: 0.8"/>
     <use xlink:href="#mf94312069b" x="226.261626" y="49.051853" style="fill: #e69f00; stroke: #ffffff; stroke-width: 0.8"/>
     <use xlink:href="#mf94312069b" x="253.73728" y="106.260378" style="fill: #e69f00; stroke: #ffffff; stroke-width: 0.8"/>
     <use xlink:href="#mf94312069b" x="290.371486" y="41.794545" style="fill: #e69f00; stroke: #ffffff; stroke-width: 0.8"/>
     <use xlink:href="#mf94312069b" x="322.235612" y="87.422439" style="fill: #e69f00; stroke: #ffffff; stroke-width: 0.8"/>
    </g>
   </g>
   <g id="text_12">
    <!-- Velvet — 70 replayed certificates -->
    <g style="fill: #1b2927" transform="translate(66.156579 21.6) scale(0.14 -0.14)">
     <defs>
      <path id="DejaVuSans-Bold-56" d="M 31 4666 
L 1241 4666 
L 2478 1222 
L 3713 4666 
L 4922 4666 
L 3194 0 
L 1759 0 
L 31 4666 
z
" transform="scale(0.015625)"/>
      <path id="DejaVuSans-Bold-76" d="M 97 3500 
L 1216 3500 
L 2088 1081 
L 2956 3500 
L 4078 3500 
L 2700 0 
L 1472 0 
L 97 3500 
z
" transform="scale(0.015625)"/>
      <path id="DejaVuSans-Bold-2014" d="M 344 2156 
L 6056 2156 
L 6056 1350 
L 344 1350 
L 344 2156 
z
" transform="scale(0.015625)"/>
      <path id="DejaVuSans-Bold-66" d="M 2841 4863 
L 2841 4128 
L 2222 4128 
Q 1984 4128 1890 4042 
Q 1797 3956 1797 3744 
L 1797 3500 
L 2753 3500 
L 2753 2700 
L 1797 2700 
L 1797 0 
L 678 0 
L 678 2700 
L 122 2700 
L 122 3500 
L 678 3500 
L 678 3744 
Q 678 4316 997 4589 
Q 1316 4863 1984 4863 
L 2841 4863 
z
" transform="scale(0.015625)"/>
     </defs>
     <use xlink:href="#DejaVuSans-Bold-56"/>
     <use xlink:href="#DejaVuSans-Bold-65" transform="translate(71.892578 0)"/>
     <use xlink:href="#DejaVuSans-Bold-6c" transform="translate(139.714844 0)"/>
     <use xlink:href="#DejaVuSans-Bold-76" transform="translate(173.992188 0)"/>
     <use xlink:href="#DejaVuSans-Bold-65" transform="translate(239.177734 0)"/>
     <use xlink:href="#DejaVuSans-Bold-74" transform="translate(307 0)"/>
     <use xlink:href="#DejaVuSans-Bold-20" transform="translate(354.802734 0)"/>
     <use xlink:href="#DejaVuSans-Bold-2014" transform="translate(389.617188 0)"/>
     <use xlink:href="#DejaVuSans-Bold-20" transform="translate(489.617188 0)"/>
     <use xlink:href="#DejaVuSans-Bold-37" transform="translate(524.431641 0)"/>
     <use xlink:href="#DejaVuSans-Bold-30" transform="translate(594.011719 0)"/>
     <use xlink:href="#DejaVuSans-Bold-20" transform="translate(663.591797 0)"/>
     <use xlink:href="#DejaVuSans-Bold-72" transform="translate(698.40625 0)"/>
     <use xlink:href="#DejaVuSans-Bold-65" transform="translate(747.722656 0)"/>
     <use xlink:href="#DejaVuSans-Bold-70" transform="translate(815.544922 0)"/>
     <use xlink:href="#DejaVuSans-Bold-6c" transform="translate(887.126953 0)"/>
     <use xlink:href="#DejaVuSans-Bold-61" transform="translate(921.404297 0)"/>
     <use xlink:href="#DejaVuSans-Bold-79" transform="translate(985.759766 0)"/>
     <use xlink:href="#DejaVuSans-Bold-65" transform="translate(1050.945312 0)"/>
     <use xlink:href="#DejaVuSans-Bold-64" transform="translate(1118.767578 0)"/>
     <use xlink:href="#DejaVuSans-Bold-20" transform="translate(1190.349609 0)"/>
     <use xlink:href="#DejaVuSans-Bold-63" transform="translate(1225.164062 0)"/>
     <use xlink:href="#DejaVuSans-Bold-65" transform="translate(1284.441406 0)"/>
     <use xlink:href="#DejaVuSans-Bold-72" transform="translate(1352.263672 0)"/>
     <use xlink:href="#DejaVuSans-Bold-74" transform="translate(1401.580078 0)"/>
     <use xlink:href="#DejaVuSans-Bold-69" transform="translate(1449.382812 0)"/>
     <use xlink:href="#DejaVuSans-Bold-66" transform="translate(1483.660156 0)"/>
     <use xlink:href="#DejaVuSans-Bold-69" transform="translate(1527.166016 0)"/>
     <use xlink:href="#DejaVuSans-Bold-63" transform="translate(1561.443359 0)"/>
     <use xlink:href="#DejaVuSans-Bold-61" transform="translate(1620.720703 0)"/>
     <use xlink:href="#DejaVuSans-Bold-74" transform="translate(1688.201172 0)"/>
     <use xlink:href="#DejaVuSans-Bold-65" transform="translate(1736.003906 0)"/>
     <use xlink:href="#DejaVuSans-Bold-73" transform="translate(1803.826172 0)"/>
    </g>
   </g>
  </g>
 </g>
 <defs>
  <clipPath id="p1f00820797">
   <rect x="58.383471" y="29.6" width="276.416529" height="268.28"/>
  </clipPath>
 </defs>
</svg>
