<svg xmlns="http://www.w3.org/2000/svg" viewBox="0 0 1320 650" role="img" aria-labelledby="title description">
<title id="title">Verification outcomes by corpus and backend</title>
<desc id="description">Within each corpus, every stacked bar partitions the same VCs into success, translation error, timeout, and failed to prove.</desc>
<style>
text { fill: #1B2927; font-family: 'Avenir Next', 'IBM Plex Sans', sans-serif; }
.title { font-size: 25px; font-weight: 700; letter-spacing: .2px; }
.subtitle { fill: #64716E; font-size: 13px; }
.axis { fill: #64716E; font-size: 12px; }
.label { font-size: 13px; font-weight: 600; }
.value { font-size: 11px; font-weight: 600; }
.legend { font-size: 12px; }
.grid { stroke: #D9D5CB; stroke-width: 1; }
.axis-line { stroke: #64716E; stroke-width: 1.2; }
</style>
<rect width="1320" height="650" fill="#FBF8F1"/>
<text x="42.00" y="42.00" text-anchor="start" class="title">Verification outcomes</text>
<text x="42.00" y="66.00" text-anchor="start" class="subtitle">Within each corpus, every bar uses the same VCs; Crush trusts SMT verdicts</text>
<rect x="42.00" y="87.00" width="15.00" height="10.00" rx="2.00" fill="#178078" opacity="1.000"/>
<text x="63.00" y="96.00" text-anchor="start" class="legend">Success</text>
<rect x="129.00" y="87.00" width="15.00" height="10.00" rx="2.00" fill="#D69A3A" opacity="1.000"/>
<text x="150.00" y="96.00" text-anchor="start" class="legend">Translation error</text>
<rect x="280.00" y="87.00" width="15.00" height="10.00" rx="2.00" fill="#A4433E" opacity="1.000"/>
<text x="301.00" y="96.00" text-anchor="start" class="legend">Timeout</text>
<rect x="367.00" y="87.00" width="15.00" height="10.00" rx="2.00" fill="#597A91" opacity="1.000"/>
<text x="388.00" y="96.00" text-anchor="start" class="legend">Failed to prove</text>
<line x1="82.00" y1="530.00" x2="1284.00" y2="530.00" class="grid"/>
<text x="70.00" y="534.00" text-anchor="end" class="axis">0%</text>
<line x1="82.00" y1="433.00" x2="1284.00" y2="433.00" class="grid"/>
<text x="70.00" y="437.00" text-anchor="end" class="axis">25%</text>
<line x1="82.00" y1="336.00" x2="1284.00" y2="336.00" class="grid"/>
<text x="70.00" y="340.00" text-anchor="end" class="axis">50%</text>
<line x1="82.00" y1="239.00" x2="1284.00" y2="239.00" class="grid"/>
<text x="70.00" y="243.00" text-anchor="end" class="axis">75%</text>
<line x1="82.00" y1="142.00" x2="1284.00" y2="142.00" class="grid"/>
<text x="70.00" y="146.00" text-anchor="end" class="axis">100%</text>
<g><title>LeanHammer / Auto / Success: 8 of 20 (40.0%)</title><rect x="105.08" y="374.80" width="38.46" height="155.20" rx="0.00" fill="#178078" opacity="1.000"/></g>
<text x="124.31" y="456.40" text-anchor="middle" class="value">8</text>
<g><title>LeanHammer / Auto / Translation error: 1 of 20 (5.0%)</title><rect x="105.08" y="355.40" width="38.46" height="19.40" rx="0.00" fill="#D69A3A" opacity="1.000"/></g>
<text x="124.31" y="369.10" text-anchor="middle" class="value">1</text>
<g><title>LeanHammer / Auto / Failed to prove: 11 of 20 (55.0%)</title><rect x="105.08" y="142.00" width="38.46" height="213.40" rx="0.00" fill="#597A91" opacity="1.000"/></g>
<text x="124.31" y="252.70" text-anchor="middle" class="value">11</text>
<text x="124.31" y="552.00" text-anchor="middle" class="axis">Auto</text>
<g><title>LeanHammer / Duper / Success: 12 of 20 (60.0%)</title><rect x="157.00" y="297.20" width="38.46" height="232.80" rx="0.00" fill="#178078" opacity="1.000"/></g>
<text x="176.24" y="417.60" text-anchor="middle" class="value">12</text>
<g><title>LeanHammer / Duper / Timeout: 1 of 20 (5.0%)</title><rect x="157.00" y="277.80" width="38.46" height="19.40" rx="0.00" fill="#A4433E" opacity="1.000"/></g>
<text x="176.24" y="291.50" text-anchor="middle" class="value">1</text>
<g><title>LeanHammer / Duper / Failed to prove: 7 of 20 (35.0%)</title><rect x="157.00" y="142.00" width="38.46" height="135.80" rx="0.00" fill="#597A91" opacity="1.000"/></g>
<text x="176.24" y="213.90" text-anchor="middle" class="value">7</text>
<text x="176.24" y="552.00" text-anchor="middle" class="axis">Duper</text>
<g><title>LeanHammer / Crush / Success: 19 of 20 (95.0%)</title><rect x="208.93" y="161.40" width="38.46" height="368.60" rx="0.00" fill="#178078" opacity="1.000"/></g>
<text x="228.16" y="349.70" text-anchor="middle" class="value">19</text>
<g><title>LeanHammer / Crush / Timeout: 1 of 20 (5.0%)</title><rect x="208.93" y="142.00" width="38.46" height="19.40" rx="0.00" fill="#A4433E" opacity="1.000"/></g>
<text x="228.16" y="155.70" text-anchor="middle" class="value">1</text>
<text x="228.16" y="552.00" text-anchor="middle" class="axis">Crush</text>
<g><title>LeanHammer / grind / Success: 16 of 20 (80.0%)</title><rect x="260.86" y="219.60" width="38.46" height="310.40" rx="0.00" fill="#178078" opacity="1.000"/></g>
<text x="280.09" y="378.80" text-anchor="middle" class="value">16</text>
<g><title>LeanHammer / grind / Failed to prove: 4 of 20 (20.0%)</title><rect x="260.86" y="142.00" width="38.46" height="77.60" rx="0.00" fill="#597A91" opacity="1.000"/></g>
<text x="280.09" y="184.80" text-anchor="middle" class="value">4</text>
<text x="280.09" y="552.00" text-anchor="middle" class="axis">grind</text>
<text x="202.20" y="580.00" text-anchor="middle" class="label">LeanHammer</text>
<text x="202.20" y="599.00" text-anchor="middle" class="axis">20 VCs</text>
<g><title>Loom / Auto / Success: 4 of 4 (100.0%)</title><rect x="345.48" y="142.00" width="38.46" height="388.00" rx="0.00" fill="#178078" opacity="1.000"/></g>
<text x="364.71" y="340.00" text-anchor="middle" class="value">4</text>
<text x="364.71" y="552.00" text-anchor="middle" class="axis">Auto</text>
<g><title>Loom / Duper / Success: 1 of 4 (25.0%)</title><rect x="397.40" y="433.00" width="38.46" height="97.00" rx="0.00" fill="#178078" opacity="1.000"/></g>
<text x="416.64" y="485.50" text-anchor="middle" class="value">1</text>
<g><title>Loom / Duper / Failed to prove: 3 of 4 (75.0%)</title><rect x="397.40" y="142.00" width="38.46" height="291.00" rx="0.00" fill="#597A91" opacity="1.000"/></g>
<text x="416.64" y="291.50" text-anchor="middle" class="value">3</text>
<text x="416.64" y="552.00" text-anchor="middle" class="axis">Duper</text>
<g><title>Loom / Crush / Success: 4 of 4 (100.0%)</title><rect x="449.33" y="142.00" width="38.46" height="388.00" rx="0.00" fill="#178078" opacity="1.000"/></g>
<text x="468.56" y="340.00" text-anchor="middle" class="value">4</text>
<text x="468.56" y="552.00" text-anchor="middle" class="axis">Crush</text>
<g><title>Loom / grind / Success: 4 of 4 (100.0%)</title><rect x="501.26" y="142.00" width="38.46" height="388.00" rx="0.00" fill="#178078" opacity="1.000"/></g>
<text x="520.49" y="340.00" text-anchor="middle" class="value">4</text>
<text x="520.49" y="552.00" text-anchor="middle" class="axis">grind</text>
<text x="442.60" y="580.00" text-anchor="middle" class="label">Loom</text>
<text x="442.60" y="599.00" text-anchor="middle" class="axis">4 VCs</text>
<line x1="322.40" y1="142.00" x2="322.40" y2="604.00" stroke="#D9D5CB"/>
<g><title>Cashmere / Auto / Success: 18 of 38 (47.4%)</title><rect x="585.88" y="346.21" width="38.46" height="183.79" rx="0.00" fill="#178078" opacity="1.000"/></g>
<text x="605.11" y="442.11" text-anchor="middle" class="value">18</text>
<g><title>Cashmere / Auto / Failed to prove: 20 of 38 (52.6%)</title><rect x="585.88" y="142.00" width="38.46" height="204.21" rx="0.00" fill="#597A91" opacity="1.000"/></g>
<text x="605.11" y="248.11" text-anchor="middle" class="value">20</text>
<text x="605.11" y="552.00" text-anchor="middle" class="axis">Auto</text>
<g><title>Cashmere / Duper / Success: 21 of 38 (55.3%)</title><rect x="637.80" y="315.58" width="38.46" height="214.42" rx="0.00" fill="#178078" opacity="1.000"/></g>
<text x="657.04" y="426.79" text-anchor="middle" class="value">21</text>
<g><title>Cashmere / Duper / Timeout: 1 of 38 (2.6%)</title><rect x="637.80" y="305.37" width="38.46" height="10.21" rx="0.00" fill="#A4433E" opacity="1.000"/></g>
<g><title>Cashmere / Duper / Failed to prove: 16 of 38 (42.1%)</title><rect x="637.80" y="142.00" width="38.46" height="163.37" rx="0.00" fill="#597A91" opacity="1.000"/></g>
<text x="657.04" y="227.68" text-anchor="middle" class="value">16</text>
<text x="657.04" y="552.00" text-anchor="middle" class="axis">Duper</text>
<g><title>Cashmere / Crush / Success: 38 of 38 (100.0%)</title><rect x="689.73" y="142.00" width="38.46" height="388.00" rx="0.00" fill="#178078" opacity="1.000"/></g>
<text x="708.96" y="340.00" text-anchor="middle" class="value">38</text>
<text x="708.96" y="552.00" text-anchor="middle" class="axis">Crush</text>
<g><title>Cashmere / grind / Success: 19 of 38 (50.0%)</title><rect x="741.66" y="336.00" width="38.46" height="194.00" rx="0.00" fill="#178078" opacity="1.000"/></g>
<text x="760.89" y="437.00" text-anchor="middle" class="value">19</text>
<g><title>Cashmere / grind / Failed to prove: 19 of 38 (50.0%)</title><rect x="741.66" y="142.00" width="38.46" height="194.00" rx="0.00" fill="#597A91" opacity="1.000"/></g>
<text x="760.89" y="243.00" text-anchor="middle" class="value">19</text>
<text x="760.89" y="552.00" text-anchor="middle" class="axis">grind</text>
<text x="683.00" y="580.00" text-anchor="middle" class="label">Cashmere</text>
<text x="683.00" y="599.00" text-anchor="middle" class="axis">38 VCs</text>
<line x1="562.80" y1="142.00" x2="562.80" y2="604.00" stroke="#D9D5CB"/>
<g><title>Velvet / Auto / Success: 415 of 504 (82.3%)</title><rect x="826.28" y="210.52" width="38.46" height="319.48" rx="0.00" fill="#178078" opacity="1.000"/></g>
<text x="845.51" y="374.26" text-anchor="middle" class="value">415</text>
<g><title>Velvet / Auto / Failed to prove: 89 of 504 (17.7%)</title><rect x="826.28" y="142.00" width="38.46" height="68.52" rx="0.00" fill="#597A91" opacity="1.000"/></g>
<text x="845.51" y="180.26" text-anchor="middle" class="value">89</text>
<text x="845.51" y="552.00" text-anchor="middle" class="axis">Auto</text>
<g><title>Velvet / Duper / Success: 292 of 504 (57.9%)</title><rect x="878.20" y="305.21" width="38.46" height="224.79" rx="0.00" fill="#178078" opacity="1.000"/></g>
<text x="897.44" y="421.60" text-anchor="middle" class="value">292</text>
<g><title>Velvet / Duper / Timeout: 133 of 504 (26.4%)</title><rect x="878.20" y="202.82" width="38.46" height="102.39" rx="0.00" fill="#A4433E" opacity="1.000"/></g>
<text x="897.44" y="258.01" text-anchor="middle" class="value">133</text>
<g><title>Velvet / Duper / Failed to prove: 79 of 504 (15.7%)</title><rect x="878.20" y="142.00" width="38.46" height="60.82" rx="0.00" fill="#597A91" opacity="1.000"/></g>
<text x="897.44" y="176.41" text-anchor="middle" class="value">79</text>
<text x="897.44" y="552.00" text-anchor="middle" class="axis">Duper</text>
<g><title>Velvet / Crush / Success: 484 of 504 (96.0%)</title><rect x="930.13" y="157.40" width="38.46" height="372.60" rx="0.00" fill="#178078" opacity="1.000"/></g>
<text x="949.36" y="347.70" text-anchor="middle" class="value">484</text>
<g><title>Velvet / Crush / Timeout: 14 of 504 (2.8%)</title><rect x="930.13" y="146.62" width="38.46" height="10.78" rx="0.00" fill="#A4433E" opacity="1.000"/></g>
<g><title>Velvet / Crush / Failed to prove: 6 of 504 (1.2%)</title><rect x="930.13" y="142.00" width="38.46" height="4.62" rx="0.00" fill="#597A91" opacity="1.000"/></g>
<text x="949.36" y="552.00" text-anchor="middle" class="axis">Crush</text>
<g><title>Velvet / grind / Success: 444 of 504 (88.1%)</title><rect x="982.06" y="188.19" width="38.46" height="341.81" rx="0.00" fill="#178078" opacity="1.000"/></g>
<text x="1001.29" y="363.10" text-anchor="middle" class="value">444</text>
<g><title>Velvet / grind / Failed to prove: 60 of 504 (11.9%)</title><rect x="982.06" y="142.00" width="38.46" height="46.19" rx="0.00" fill="#597A91" opacity="1.000"/></g>
<text x="1001.29" y="169.10" text-anchor="middle" class="value">60</text>
<text x="1001.29" y="552.00" text-anchor="middle" class="axis">grind</text>
<text x="923.40" y="580.00" text-anchor="middle" class="label">Velvet</text>
<text x="923.40" y="599.00" text-anchor="middle" class="axis">504 VCs</text>
<line x1="803.20" y1="142.00" x2="803.20" y2="604.00" stroke="#D9D5CB"/>
<g><title>PLean / Auto / Success: 168 of 192 (87.5%)</title><rect x="1066.68" y="190.50" width="38.46" height="339.50" rx="0.00" fill="#178078" opacity="1.000"/></g>
<text x="1085.91" y="364.25" text-anchor="middle" class="value">168</text>
<g><title>PLean / Auto / Translation error: 6 of 192 (3.1%)</title><rect x="1066.68" y="178.38" width="38.46" height="12.12" rx="0.00" fill="#D69A3A" opacity="1.000"/></g>
<g><title>PLean / Auto / Failed to prove: 18 of 192 (9.4%)</title><rect x="1066.68" y="142.00" width="38.46" height="36.38" rx="0.00" fill="#597A91" opacity="1.000"/></g>
<text x="1085.91" y="164.19" text-anchor="middle" class="value">18</text>
<text x="1085.91" y="552.00" text-anchor="middle" class="axis">Auto</text>
<g><title>PLean / Duper / Success: 71 of 192 (37.0%)</title><rect x="1118.60" y="386.52" width="38.46" height="143.48" rx="0.00" fill="#178078" opacity="1.000"/></g>
<text x="1137.84" y="462.26" text-anchor="middle" class="value">71</text>
<g><title>PLean / Duper / Timeout: 19 of 192 (9.9%)</title><rect x="1118.60" y="348.13" width="38.46" height="38.40" rx="0.00" fill="#A4433E" opacity="1.000"/></g>
<text x="1137.84" y="371.32" text-anchor="middle" class="value">19</text>
<g><title>PLean / Duper / Failed to prove: 102 of 192 (53.1%)</title><rect x="1118.60" y="142.00" width="38.46" height="206.12" rx="0.00" fill="#597A91" opacity="1.000"/></g>
<text x="1137.84" y="249.06" text-anchor="middle" class="value">102</text>
<text x="1137.84" y="552.00" text-anchor="middle" class="axis">Duper</text>
<g><title>PLean / Crush / Success: 174 of 192 (90.6%)</title><rect x="1170.53" y="178.38" width="38.46" height="351.62" rx="0.00" fill="#178078" opacity="1.000"/></g>
<text x="1189.76" y="358.19" text-anchor="middle" class="value">174</text>
<g><title>PLean / Crush / Timeout: 16 of 192 (8.3%)</title><rect x="1170.53" y="146.04" width="38.46" height="32.33" rx="0.00" fill="#A4433E" opacity="1.000"/></g>
<text x="1189.76" y="166.21" text-anchor="middle" class="value">16</text>
<g><title>PLean / Crush / Failed to prove: 2 of 192 (1.0%)</title><rect x="1170.53" y="142.00" width="38.46" height="4.04" rx="0.00" fill="#597A91" opacity="1.000"/></g>
<text x="1189.76" y="552.00" text-anchor="middle" class="axis">Crush</text>
<g><title>PLean / grind / Success: 155 of 192 (80.7%)</title><rect x="1222.46" y="216.77" width="38.46" height="313.23" rx="0.00" fill="#178078" opacity="1.000"/></g>
<text x="1241.69" y="377.39" text-anchor="middle" class="value">155</text>
<g><title>PLean / grind / Failed to prove: 37 of 192 (19.3%)</title><rect x="1222.46" y="142.00" width="38.46" height="74.77" rx="0.00" fill="#597A91" opacity="1.000"/></g>
<text x="1241.69" y="183.39" text-anchor="middle" class="value">37</text>
<text x="1241.69" y="552.00" text-anchor="middle" class="axis">grind</text>
<text x="1163.80" y="580.00" text-anchor="middle" class="label">PLean</text>
<text x="1163.80" y="599.00" text-anchor="middle" class="axis">192 VCs</text>
<line x1="1043.60" y1="142.00" x2="1043.60" y2="604.00" stroke="#D9D5CB"/>
</svg>
