<svg xmlns="http://www.w3.org/2000/svg" viewBox="0 0 1180 650" role="img" aria-labelledby="title description">
<title id="title">Verification outcomes by corpus and backend</title>
<desc id="description">Within each corpus, every stacked bar partitions the same VCs into success, translation error, timeout, and failed to prove.</desc>
<style>
text { fill: #1B2927; font-family: 'Avenir Next', 'IBM Plex Sans', sans-serif; }
.title { font-size: 25px; font-weight: 700; letter-spacing: .2px; }
.subtitle { fill: #64716E; font-size: 13px; }
.axis { fill: #64716E; font-size: 12px; }
.label { font-size: 13px; font-weight: 600; }
.value { font-size: 11px; font-weight: 600; }
.legend { font-size: 12px; }
.grid { stroke: #D9D5CB; stroke-width: 1; }
.axis-line { stroke: #64716E; stroke-width: 1.2; }
</style>
<rect width="1180" height="650" fill="#FFFFFF"/>
<text x="42.00" y="42.00" text-anchor="start" class="title">Verification outcomes</text>
<text x="42.00" y="66.00" text-anchor="start" class="subtitle">Within each corpus, every bar uses the same VCs; Crush trusts SMT verdicts</text>
<rect x="42.00" y="87.00" width="15.00" height="10.00" rx="2.00" fill="#178078" opacity="1.000"/>
<text x="63.00" y="96.00" text-anchor="start" class="legend">Success</text>
<rect x="129.00" y="87.00" width="15.00" height="10.00" rx="2.00" fill="#D69A3A" opacity="1.000"/>
<text x="150.00" y="96.00" text-anchor="start" class="legend">Translation error</text>
<rect x="280.00" y="87.00" width="15.00" height="10.00" rx="2.00" fill="#A4433E" opacity="1.000"/>
<text x="301.00" y="96.00" text-anchor="start" class="legend">Timeout</text>
<rect x="367.00" y="87.00" width="15.00" height="10.00" rx="2.00" fill="#597A91" opacity="1.000"/>
<text x="388.00" y="96.00" text-anchor="start" class="legend">Failed to prove</text>
<line x1="82.00" y1="530.00" x2="1144.00" y2="530.00" class="grid"/>
<text x="70.00" y="534.00" text-anchor="end" class="axis">0%</text>
<line x1="82.00" y1="433.00" x2="1144.00" y2="433.00" class="grid"/>
<text x="70.00" y="437.00" text-anchor="end" class="axis">25%</text>
<line x1="82.00" y1="336.00" x2="1144.00" y2="336.00" class="grid"/>
<text x="70.00" y="340.00" text-anchor="end" class="axis">50%</text>
<line x1="82.00" y1="239.00" x2="1144.00" y2="239.00" class="grid"/>
<text x="70.00" y="243.00" text-anchor="end" class="axis">75%</text>
<line x1="82.00" y1="142.00" x2="1144.00" y2="142.00" class="grid"/>
<text x="70.00" y="146.00" text-anchor="end" class="axis">100%</text>
<g><title>Curated / Auto / Success: 17 of 20 (85.0%)</title><rect x="53.75" y="200.20" width="42.00" height="329.80" rx="0.00" fill="#178078" opacity="1.000"/></g>
<text x="74.75" y="369.10" text-anchor="middle" class="value">17</text>
<g><title>Curated / Auto / Translation error: 3 of 20 (15.0%)</title><rect x="53.75" y="142.00" width="42.00" height="58.20" rx="0.00" fill="#D69A3A" opacity="1.000"/></g>
<text x="74.75" y="175.10" text-anchor="middle" class="value">3</text>
<text x="74.75" y="552.00" text-anchor="middle" class="axis">Auto</text>
<g><title>Curated / Duper / Success: 12 of 20 (60.0%)</title><rect x="109.75" y="297.20" width="42.00" height="232.80" rx="0.00" fill="#178078" opacity="1.000"/></g>
<text x="130.75" y="417.60" text-anchor="middle" class="value">12</text>
<g><title>Curated / Duper / Timeout: 1 of 20 (5.0%)</title><rect x="109.75" y="277.80" width="42.00" height="19.40" rx="0.00" fill="#A4433E" opacity="1.000"/></g>
<text x="130.75" y="291.50" text-anchor="middle" class="value">1</text>
<g><title>Curated / Duper / Failed to prove: 7 of 20 (35.0%)</title><rect x="109.75" y="142.00" width="42.00" height="135.80" rx="0.00" fill="#597A91" opacity="1.000"/></g>
<text x="130.75" y="213.90" text-anchor="middle" class="value">7</text>
<text x="130.75" y="552.00" text-anchor="middle" class="axis">Duper</text>
<g><title>Curated / lean-smt / Success: 12 of 20 (60.0%)</title><rect x="165.75" y="297.20" width="42.00" height="232.80" rx="0.00" fill="#178078" opacity="1.000"/></g>
<text x="186.75" y="417.60" text-anchor="middle" class="value">12</text>
<g><title>Curated / lean-smt / Translation error: 5 of 20 (25.0%)</title><rect x="165.75" y="200.20" width="42.00" height="97.00" rx="0.00" fill="#D69A3A" opacity="1.000"/></g>
<text x="186.75" y="252.70" text-anchor="middle" class="value">5</text>
<g><title>Curated / lean-smt / Failed to prove: 3 of 20 (15.0%)</title><rect x="165.75" y="142.00" width="42.00" height="58.20" rx="0.00" fill="#597A91" opacity="1.000"/></g>
<text x="186.75" y="175.10" text-anchor="middle" class="value">3</text>
<text x="186.75" y="552.00" text-anchor="middle" class="axis">lean-smt</text>
<g><title>Curated / Crush (SMT trusted) / Success: 19 of 20 (95.0%)</title><rect x="221.75" y="161.40" width="42.00" height="368.60" rx="0.00" fill="#178078" opacity="1.000"/></g>
<text x="242.75" y="349.70" text-anchor="middle" class="value">19</text>
<g><title>Curated / Crush (SMT trusted) / Timeout: 1 of 20 (5.0%)</title><rect x="221.75" y="142.00" width="42.00" height="19.40" rx="0.00" fill="#A4433E" opacity="1.000"/></g>
<text x="242.75" y="155.70" text-anchor="middle" class="value">1</text>
<text x="242.75" y="552.00" text-anchor="middle" class="axis">Crush (SMT trusted)</text>
<g><title>Curated / grind / Success: 16 of 20 (80.0%)</title><rect x="277.75" y="219.60" width="42.00" height="310.40" rx="0.00" fill="#178078" opacity="1.000"/></g>
<text x="298.75" y="378.80" text-anchor="middle" class="value">16</text>
<g><title>Curated / grind / Failed to prove: 4 of 20 (20.0%)</title><rect x="277.75" y="142.00" width="42.00" height="77.60" rx="0.00" fill="#597A91" opacity="1.000"/></g>
<text x="298.75" y="184.80" text-anchor="middle" class="value">4</text>
<text x="298.75" y="552.00" text-anchor="middle" class="axis">grind</text>
<g><title>Curated / Crush (kernel-checked) / Success: 19 of 20 (95.0%)</title><rect x="333.75" y="161.40" width="42.00" height="368.60" rx="0.00" fill="#178078" opacity="1.000"/></g>
<text x="354.75" y="349.70" text-anchor="middle" class="value">19</text>
<g><title>Curated / Crush (kernel-checked) / Timeout: 1 of 20 (5.0%)</title><rect x="333.75" y="142.00" width="42.00" height="19.40" rx="0.00" fill="#A4433E" opacity="1.000"/></g>
<text x="354.75" y="155.70" text-anchor="middle" class="value">1</text>
<text x="354.75" y="552.00" text-anchor="middle" class="axis">Crush (kernel-checked)</text>
<text x="214.75" y="580.00" text-anchor="middle" class="label">Curated</text>
<text x="214.75" y="599.00" text-anchor="middle" class="axis">20 VCs</text>
<g><title>Cashmere / Auto / Success: 18 of 38 (47.4%)</title><rect x="319.25" y="346.21" width="42.00" height="183.79" rx="0.00" fill="#178078" opacity="1.000"/></g>
<text x="340.25" y="442.11" text-anchor="middle" class="value">18</text>
<g><title>Cashmere / Auto / Failed to prove: 20 of 38 (52.6%)</title><rect x="319.25" y="142.00" width="42.00" height="204.21" rx="0.00" fill="#597A91" opacity="1.000"/></g>
<text x="340.25" y="248.11" text-anchor="middle" class="value">20</text>
<text x="340.25" y="552.00" text-anchor="middle" class="axis">Auto</text>
<g><title>Cashmere / Duper / Success: 21 of 38 (55.3%)</title><rect x="375.25" y="315.58" width="42.00" height="214.42" rx="0.00" fill="#178078" opacity="1.000"/></g>
<text x="396.25" y="426.79" text-anchor="middle" class="value">21</text>
<g><title>Cashmere / Duper / Timeout: 1 of 38 (2.6%)</title><rect x="375.25" y="305.37" width="42.00" height="10.21" rx="0.00" fill="#A4433E" opacity="1.000"/></g>
<g><title>Cashmere / Duper / Failed to prove: 16 of 38 (42.1%)</title><rect x="375.25" y="142.00" width="42.00" height="163.37" rx="0.00" fill="#597A91" opacity="1.000"/></g>
<text x="396.25" y="227.68" text-anchor="middle" class="value">16</text>
<text x="396.25" y="552.00" text-anchor="middle" class="axis">Duper</text>
<g><title>Cashmere / lean-smt / Success: 17 of 38 (44.7%)</title><rect x="431.25" y="356.42" width="42.00" height="173.58" rx="0.00" fill="#178078" opacity="1.000"/></g>
<text x="452.25" y="447.21" text-anchor="middle" class="value">17</text>
<g><title>Cashmere / lean-smt / Failed to prove: 21 of 38 (55.3%)</title><rect x="431.25" y="142.00" width="42.00" height="214.42" rx="0.00" fill="#597A91" opacity="1.000"/></g>
<text x="452.25" y="253.21" text-anchor="middle" class="value">21</text>
<text x="452.25" y="552.00" text-anchor="middle" class="axis">lean-smt</text>
<g><title>Cashmere / Crush (SMT trusted) / Success: 38 of 38 (100.0%)</title><rect x="487.25" y="142.00" width="42.00" height="388.00" rx="0.00" fill="#178078" opacity="1.000"/></g>
<text x="508.25" y="340.00" text-anchor="middle" class="value">38</text>
<text x="508.25" y="552.00" text-anchor="middle" class="axis">Crush (SMT trusted)</text>
<g><title>Cashmere / grind / Success: 19 of 38 (50.0%)</title><rect x="543.25" y="336.00" width="42.00" height="194.00" rx="0.00" fill="#178078" opacity="1.000"/></g>
<text x="564.25" y="437.00" text-anchor="middle" class="value">19</text>
<g><title>Cashmere / grind / Failed to prove: 19 of 38 (50.0%)</title><rect x="543.25" y="142.00" width="42.00" height="194.00" rx="0.00" fill="#597A91" opacity="1.000"/></g>
<text x="564.25" y="243.00" text-anchor="middle" class="value">19</text>
<text x="564.25" y="552.00" text-anchor="middle" class="axis">grind</text>
<g><title>Cashmere / Crush (kernel-checked) / Success: 38 of 38 (100.0%)</title><rect x="599.25" y="142.00" width="42.00" height="388.00" rx="0.00" fill="#178078" opacity="1.000"/></g>
<text x="620.25" y="340.00" text-anchor="middle" class="value">38</text>
<text x="620.25" y="552.00" text-anchor="middle" class="axis">Crush (kernel-checked)</text>
<text x="480.25" y="580.00" text-anchor="middle" class="label">Cashmere</text>
<text x="480.25" y="599.00" text-anchor="middle" class="axis">38 VCs</text>
<line x1="347.50" y1="142.00" x2="347.50" y2="604.00" stroke="#D9D5CB"/>
<g><title>Velvet / Auto / Success: 415 of 504 (82.3%)</title><rect x="584.75" y="210.52" width="42.00" height="319.48" rx="0.00" fill="#178078" opacity="1.000"/></g>
<text x="605.75" y="374.26" text-anchor="middle" class="value">415</text>
<g><title>Velvet / Auto / Failed to prove: 89 of 504 (17.7%)</title><rect x="584.75" y="142.00" width="42.00" height="68.52" rx="0.00" fill="#597A91" opacity="1.000"/></g>
<text x="605.75" y="180.26" text-anchor="middle" class="value">89</text>
<text x="605.75" y="552.00" text-anchor="middle" class="axis">Auto</text>
<g><title>Velvet / Duper / Success: 292 of 504 (57.9%)</title><rect x="640.75" y="305.21" width="42.00" height="224.79" rx="0.00" fill="#178078" opacity="1.000"/></g>
<text x="661.75" y="421.60" text-anchor="middle" class="value">292</text>
<g><title>Velvet / Duper / Timeout: 133 of 504 (26.4%)</title><rect x="640.75" y="202.82" width="42.00" height="102.39" rx="0.00" fill="#A4433E" opacity="1.000"/></g>
<text x="661.75" y="258.01" text-anchor="middle" class="value">133</text>
<g><title>Velvet / Duper / Failed to prove: 79 of 504 (15.7%)</title><rect x="640.75" y="142.00" width="42.00" height="60.82" rx="0.00" fill="#597A91" opacity="1.000"/></g>
<text x="661.75" y="176.41" text-anchor="middle" class="value">79</text>
<text x="661.75" y="552.00" text-anchor="middle" class="axis">Duper</text>
<g><title>Velvet / lean-smt / Success: 302 of 504 (59.9%)</title><rect x="696.75" y="297.51" width="42.00" height="232.49" rx="0.00" fill="#178078" opacity="1.000"/></g>
<text x="717.75" y="417.75" text-anchor="middle" class="value">302</text>
<g><title>Velvet / lean-smt / Translation error: 82 of 504 (16.3%)</title><rect x="696.75" y="234.38" width="42.00" height="63.13" rx="0.00" fill="#D69A3A" opacity="1.000"/></g>
<text x="717.75" y="269.94" text-anchor="middle" class="value">82</text>
<g><title>Velvet / lean-smt / Failed to prove: 120 of 504 (23.8%)</title><rect x="696.75" y="142.00" width="42.00" height="92.38" rx="0.00" fill="#597A91" opacity="1.000"/></g>
<text x="717.75" y="192.19" text-anchor="middle" class="value">120</text>
<text x="717.75" y="552.00" text-anchor="middle" class="axis">lean-smt</text>
<g><title>Velvet / Crush (SMT trusted) / Success: 478 of 504 (94.8%)</title><rect x="752.75" y="162.02" width="42.00" height="367.98" rx="0.00" fill="#178078" opacity="1.000"/></g>
<text x="773.75" y="350.01" text-anchor="middle" class="value">478</text>
<g><title>Velvet / Crush (SMT trusted) / Timeout: 20 of 504 (4.0%)</title><rect x="752.75" y="146.62" width="42.00" height="15.40" rx="0.00" fill="#A4433E" opacity="1.000"/></g>
<g><title>Velvet / Crush (SMT trusted) / Failed to prove: 6 of 504 (1.2%)</title><rect x="752.75" y="142.00" width="42.00" height="4.62" rx="0.00" fill="#597A91" opacity="1.000"/></g>
<text x="773.75" y="552.00" text-anchor="middle" class="axis">Crush (SMT trusted)</text>
<g><title>Velvet / grind / Success: 444 of 504 (88.1%)</title><rect x="808.75" y="188.19" width="42.00" height="341.81" rx="0.00" fill="#178078" opacity="1.000"/></g>
<text x="829.75" y="363.10" text-anchor="middle" class="value">444</text>
<g><title>Velvet / grind / Failed to prove: 60 of 504 (11.9%)</title><rect x="808.75" y="142.00" width="42.00" height="46.19" rx="0.00" fill="#597A91" opacity="1.000"/></g>
<text x="829.75" y="169.10" text-anchor="middle" class="value">60</text>
<text x="829.75" y="552.00" text-anchor="middle" class="axis">grind</text>
<g><title>Velvet / Crush (kernel-checked) / Success: 472 of 504 (93.7%)</title><rect x="864.75" y="166.63" width="42.00" height="363.37" rx="0.00" fill="#178078" opacity="1.000"/></g>
<text x="885.75" y="352.32" text-anchor="middle" class="value">472</text>
<g><title>Velvet / Crush (kernel-checked) / Timeout: 20 of 504 (4.0%)</title><rect x="864.75" y="151.24" width="42.00" height="15.40" rx="0.00" fill="#A4433E" opacity="1.000"/></g>
<g><title>Velvet / Crush (kernel-checked) / Failed to prove: 12 of 504 (2.4%)</title><rect x="864.75" y="142.00" width="42.00" height="9.24" rx="0.00" fill="#597A91" opacity="1.000"/></g>
<text x="885.75" y="552.00" text-anchor="middle" class="axis">Crush (kernel-checked)</text>
<text x="745.75" y="580.00" text-anchor="middle" class="label">Velvet</text>
<text x="745.75" y="599.00" text-anchor="middle" class="axis">504 VCs</text>
<line x1="613.00" y1="142.00" x2="613.00" y2="604.00" stroke="#D9D5CB"/>
<g><title>PLean / Auto / Success: 168 of 192 (87.5%)</title><rect x="850.25" y="190.50" width="42.00" height="339.50" rx="0.00" fill="#178078" opacity="1.000"/></g>
<text x="871.25" y="364.25" text-anchor="middle" class="value">168</text>
<g><title>PLean / Auto / Translation error: 6 of 192 (3.1%)</title><rect x="850.25" y="178.38" width="42.00" height="12.12" rx="0.00" fill="#D69A3A" opacity="1.000"/></g>
<g><title>PLean / Auto / Failed to prove: 18 of 192 (9.4%)</title><rect x="850.25" y="142.00" width="42.00" height="36.38" rx="0.00" fill="#597A91" opacity="1.000"/></g>
<text x="871.25" y="164.19" text-anchor="middle" class="value">18</text>
<text x="871.25" y="552.00" text-anchor="middle" class="axis">Auto</text>
<g><title>PLean / Duper / Success: 71 of 192 (37.0%)</title><rect x="906.25" y="386.52" width="42.00" height="143.48" rx="0.00" fill="#178078" opacity="1.000"/></g>
<text x="927.25" y="462.26" text-anchor="middle" class="value">71</text>
<g><title>PLean / Duper / Timeout: 19 of 192 (9.9%)</title><rect x="906.25" y="348.13" width="42.00" height="38.40" rx="0.00" fill="#A4433E" opacity="1.000"/></g>
<text x="927.25" y="371.32" text-anchor="middle" class="value">19</text>
<g><title>PLean / Duper / Failed to prove: 102 of 192 (53.1%)</title><rect x="906.25" y="142.00" width="42.00" height="206.12" rx="0.00" fill="#597A91" opacity="1.000"/></g>
<text x="927.25" y="249.06" text-anchor="middle" class="value">102</text>
<text x="927.25" y="552.00" text-anchor="middle" class="axis">Duper</text>
<g><title>PLean / lean-smt / Success: 96 of 192 (50.0%)</title><rect x="962.25" y="336.00" width="42.00" height="194.00" rx="0.00" fill="#178078" opacity="1.000"/></g>
<text x="983.25" y="437.00" text-anchor="middle" class="value">96</text>
<g><title>PLean / lean-smt / Translation error: 1 of 192 (0.5%)</title><rect x="962.25" y="333.98" width="42.00" height="2.02" rx="0.00" fill="#D69A3A" opacity="1.000"/></g>
<g><title>PLean / lean-smt / Failed to prove: 95 of 192 (49.5%)</title><rect x="962.25" y="142.00" width="42.00" height="191.98" rx="0.00" fill="#597A91" opacity="1.000"/></g>
<text x="983.25" y="241.99" text-anchor="middle" class="value">95</text>
<text x="983.25" y="552.00" text-anchor="middle" class="axis">lean-smt</text>
<g><title>PLean / Crush (SMT trusted) / Success: 174 of 192 (90.6%)</title><rect x="1018.25" y="178.38" width="42.00" height="351.62" rx="0.00" fill="#178078" opacity="1.000"/></g>
<text x="1039.25" y="358.19" text-anchor="middle" class="value">174</text>
<g><title>PLean / Crush (SMT trusted) / Timeout: 16 of 192 (8.3%)</title><rect x="1018.25" y="146.04" width="42.00" height="32.33" rx="0.00" fill="#A4433E" opacity="1.000"/></g>
<text x="1039.25" y="166.21" text-anchor="middle" class="value">16</text>
<g><title>PLean / Crush (SMT trusted) / Failed to prove: 2 of 192 (1.0%)</title><rect x="1018.25" y="142.00" width="42.00" height="4.04" rx="0.00" fill="#597A91" opacity="1.000"/></g>
<text x="1039.25" y="552.00" text-anchor="middle" class="axis">Crush (SMT trusted)</text>
<g><title>PLean / grind / Success: 155 of 192 (80.7%)</title><rect x="1074.25" y="216.77" width="42.00" height="313.23" rx="0.00" fill="#178078" opacity="1.000"/></g>
<text x="1095.25" y="377.39" text-anchor="middle" class="value">155</text>
<g><title>PLean / grind / Failed to prove: 37 of 192 (19.3%)</title><rect x="1074.25" y="142.00" width="42.00" height="74.77" rx="0.00" fill="#597A91" opacity="1.000"/></g>
<text x="1095.25" y="183.39" text-anchor="middle" class="value">37</text>
<text x="1095.25" y="552.00" text-anchor="middle" class="axis">grind</text>
<g><title>PLean / Crush (kernel-checked) / Success: 163 of 192 (84.9%)</title><rect x="1130.25" y="200.60" width="42.00" height="329.40" rx="0.00" fill="#178078" opacity="1.000"/></g>
<text x="1151.25" y="369.30" text-anchor="middle" class="value">163</text>
<g><title>PLean / Crush (kernel-checked) / Timeout: 17 of 192 (8.9%)</title><rect x="1130.25" y="166.25" width="42.00" height="34.35" rx="0.00" fill="#A4433E" opacity="1.000"/></g>
<text x="1151.25" y="187.43" text-anchor="middle" class="value">17</text>
<g><title>PLean / Crush (kernel-checked) / Failed to prove: 12 of 192 (6.2%)</title><rect x="1130.25" y="142.00" width="42.00" height="24.25" rx="0.00" fill="#597A91" opacity="1.000"/></g>
<text x="1151.25" y="158.13" text-anchor="middle" class="value">12</text>
<text x="1151.25" y="552.00" text-anchor="middle" class="axis">Crush (kernel-checked)</text>
<text x="1011.25" y="580.00" text-anchor="middle" class="label">PLean</text>
<text x="1011.25" y="599.00" text-anchor="middle" class="axis">192 VCs</text>
<line x1="878.50" y1="142.00" x2="878.50" y2="604.00" stroke="#D9D5CB"/>
</svg>
