<svg xmlns="http://www.w3.org/2000/svg" viewBox="0 0 1260 744" role="img" aria-labelledby="title description">
<title id="title">Proof reconstruction failure modes</title>
<desc id="description">One pie per corpus showing strict-lane failure records by reported cause.</desc>
<style>
text { fill: #1B2927; font-family: 'Avenir Next', 'IBM Plex Sans', sans-serif; }
.title { font-size: 25px; font-weight: 700; letter-spacing: .2px; }
.subtitle { fill: #64716E; font-size: 13px; }
.axis { fill: #64716E; font-size: 12px; }
.label { font-size: 13px; font-weight: 600; }
.value { font-size: 11px; font-weight: 600; }
.legend { font-size: 12px; }
.grid { stroke: #D9D5CB; stroke-width: 1; }
.axis-line { stroke: #64716E; stroke-width: 1.2; }
</style>
<rect width="1260" height="744" fill="#FFFFFF"/>
<text x="42.00" y="42.00" text-anchor="start" class="title">Proof reconstruction failure modes</text>
<text x="42.00" y="66.00" text-anchor="start" class="subtitle">One pie per corpus; slices aggregate Core, Alethe, and Portfolio records</text>
<rect x="42.00" y="87.00" width="15.00" height="10.00" rx="2.00" fill="#A4433E" opacity="1.000"/>
<text x="63.00" y="96.00" text-anchor="start" class="legend">certificate error</text>
<rect x="193.00" y="87.00" width="15.00" height="10.00" rx="2.00" fill="#D27645" opacity="1.000"/>
<text x="214.00" y="96.00" text-anchor="start" class="legend">certificate error + core failed</text>
<rect x="442.00" y="87.00" width="15.00" height="10.00" rx="2.00" fill="#80546B" opacity="1.000"/>
<text x="463.00" y="96.00" text-anchor="start" class="legend">solver unknown</text>
<rect x="572.00" y="87.00" width="15.00" height="10.00" rx="2.00" fill="#B7684B" opacity="1.000"/>
<text x="593.00" y="96.00" text-anchor="start" class="legend">tactic</text>
<rect x="659.00" y="87.00" width="15.00" height="10.00" rx="2.00" fill="#3D7C83" opacity="1.000"/>
<text x="680.00" y="96.00" text-anchor="start" class="legend">term gap</text>
<rect x="747.00" y="87.00" width="15.00" height="10.00" rx="2.00" fill="#8F7A3D" opacity="1.000"/>
<text x="768.00" y="96.00" text-anchor="start" class="legend">timeout</text>
<text x="236.67" y="154.00" text-anchor="middle" class="label">cashmere</text>
<circle cx="236.67" cy="262.00" r="88.00" fill="#A4433E" stroke="#FFFFFF" stroke-width="1.5"><title>cashmere: certificate error: 23 (100.0%)</title></circle>
<text x="236.67" y="320.56" text-anchor="middle" class="value">23</text>
<text x="236.67" y="376.00" text-anchor="middle" class="axis">23 failure records</text>
<text x="630.00" y="154.00" text-anchor="middle" class="label">curated</text>
<path d="M 630.00 262.00 L 630.00 174.00 A 88.00 88.00 0 1 1 553.79 306.00 Z" fill="#A4433E" stroke="#FFFFFF" stroke-width="1.5"><title>curated: certificate error: 2 (66.7%)</title></path>
<text x="677.25" y="293.28" text-anchor="middle" class="value">2</text>
<path d="M 630.00 262.00 L 553.79 306.00 A 88.00 88.00 0 0 1 630.00 174.00 Z" fill="#3D7C83" stroke="#FFFFFF" stroke-width="1.5"><title>curated: term gap: 1 (33.3%)</title></path>
<text x="582.75" y="238.72" text-anchor="middle" class="value">1</text>
<text x="630.00" y="376.00" text-anchor="middle" class="axis">3 failure records</text>
<text x="1023.33" y="154.00" text-anchor="middle" class="label">plean</text>
<path d="M 1023.33 262.00 L 1023.33 174.00 A 88.00 88.00 0 1 1 980.84 184.94 Z" fill="#A4433E" stroke="#FFFFFF" stroke-width="1.5"><title>plean: certificate error: 172 (92.0%)</title></path>
<text x="1036.94" y="318.84" text-anchor="middle" class="value">172</text>
<path d="M 1023.33 262.00 L 980.84 184.94 A 88.00 88.00 0 0 1 1002.83 176.42 Z" fill="#D27645" stroke="#FFFFFF" stroke-width="1.5"><title>plean: certificate error + core failed: 8 (4.3%)</title></path>
<path d="M 1023.33 262.00 L 1002.83 176.42 A 88.00 88.00 0 0 1 1014.48 174.45 Z" fill="#80546B" stroke="#FFFFFF" stroke-width="1.5"><title>plean: solver unknown: 4 (2.1%)</title></path>
<path d="M 1023.33 262.00 L 1014.48 174.45 A 88.00 88.00 0 0 1 1023.33 174.00 Z" fill="#B7684B" stroke="#FFFFFF" stroke-width="1.5"><title>plean: tactic: 3 (1.6%)</title></path>
<text x="1023.33" y="376.00" text-anchor="middle" class="axis">187 failure records</text>
<text x="236.67" y="424.00" text-anchor="middle" class="label">velvet</text>
<path d="M 236.67 532.00 L 236.67 444.00 A 88.00 88.00 0 1 1 218.81 445.83 Z" fill="#A4433E" stroke="#FFFFFF" stroke-width="1.5"><title>velvet: certificate error: 238 (96.7%)</title></path>
<text x="242.23" y="590.28" text-anchor="middle" class="value">238</text>
<path d="M 236.67 532.00 L 218.81 445.83 A 88.00 88.00 0 0 1 232.17 444.11 Z" fill="#D27645" stroke="#FFFFFF" stroke-width="1.5"><title>velvet: certificate error + core failed: 6 (2.4%)</title></path>
<path d="M 236.67 532.00 L 232.17 444.11 A 88.00 88.00 0 0 1 236.67 444.00 Z" fill="#8F7A3D" stroke="#FFFFFF" stroke-width="1.5"><title>velvet: timeout: 2 (0.8%)</title></path>
<text x="236.67" y="646.00" text-anchor="middle" class="axis">246 failure records</text>
<text x="630.00" y="720.00" text-anchor="middle" class="subtitle">An SMT-cohort VC may contribute one record per strict lane; not attempted remains a separate outcome.</text>
</svg>
