<svg xmlns="http://www.w3.org/2000/svg" viewBox="0 0 1000 600" role="img" aria-labelledby="title description">
<title id="title">Checked proof coverage</title>
<desc id="description">VCs closed with a kernel-checked Lean proof, over every verification condition in the corpus.</desc>
<style>
text { fill: #1B2927; font-family: 'Avenir Next', 'IBM Plex Sans', sans-serif; }
.title { font-size: 25px; font-weight: 700; letter-spacing: .2px; }
.subtitle { fill: #64716E; font-size: 13px; }
.axis { fill: #64716E; font-size: 12px; }
.label { font-size: 13px; font-weight: 600; }
.value { font-size: 11px; font-weight: 600; }
.legend { font-size: 12px; }
.grid { stroke: #D9D5CB; stroke-width: 1; }
.axis-line { stroke: #64716E; stroke-width: 1.2; }
</style>
<rect width="1000" height="600" fill="#FFFFFF"/>
<text x="42.00" y="42.00" text-anchor="start" class="title">Checked proof coverage</text>
<text x="42.00" y="66.00" text-anchor="start" class="subtitle">VCs closed with a kernel-checked proof / all VCs; higher is better</text>
<rect x="42.00" y="87.00" width="15.00" height="10.00" rx="2.00" fill="#E69F00" opacity="1.000"/>
<text x="63.00" y="96.00" text-anchor="start" class="legend">Crush w/ Alethe</text>
<rect x="179.00" y="87.00" width="15.00" height="10.00" rx="2.00" fill="#0072B2" opacity="1.000"/>
<text x="200.00" y="96.00" text-anchor="start" class="legend">Crush w/ UNSAT Core+Alethe</text>
<line x1="80.00" y1="492.00" x2="966.00" y2="492.00" class="grid"/>
<text x="68.00" y="496.00" text-anchor="end" class="axis">0%</text>
<line x1="80.00" y1="404.00" x2="966.00" y2="404.00" class="grid"/>
<text x="68.00" y="408.00" text-anchor="end" class="axis">25%</text>
<line x1="80.00" y1="316.00" x2="966.00" y2="316.00" class="grid"/>
<text x="68.00" y="320.00" text-anchor="end" class="axis">50%</text>
<line x1="80.00" y1="228.00" x2="966.00" y2="228.00" class="grid"/>
<text x="68.00" y="232.00" text-anchor="end" class="axis">75%</text>
<line x1="80.00" y1="140.00" x2="966.00" y2="140.00" class="grid"/>
<text x="68.00" y="144.00" text-anchor="end" class="axis">100%</text>
<rect x="144.75" y="408.63" width="42.00" height="83.37" rx="2.00" fill="#E69F00" opacity="1.000"/>
<text x="165.75" y="401.63" text-anchor="middle" class="value">9/38</text>
<rect x="194.75" y="140.00" width="42.00" height="352.00" rx="2.00" fill="#0072B2" opacity="1.000"/>
<text x="215.75" y="135.00" text-anchor="middle" class="value">38/38</text>
<text x="190.75" y="519.00" text-anchor="middle" class="label">cashmere</text>
<text x="190.75" y="539.00" text-anchor="middle" class="axis">38/38 verify solved</text>
<text x="190.75" y="556.00" text-anchor="middle" class="axis">23 SMT cohort</text>
<rect x="366.25" y="245.60" width="42.00" height="246.40" rx="2.00" fill="#E69F00" opacity="1.000"/>
<text x="387.25" y="238.60" text-anchor="middle" class="value">14/20</text>
<rect x="416.25" y="157.60" width="42.00" height="334.40" rx="2.00" fill="#0072B2" opacity="1.000"/>
<text x="437.25" y="150.60" text-anchor="middle" class="value">19/20</text>
<text x="412.25" y="519.00" text-anchor="middle" class="label">curated</text>
<text x="412.25" y="539.00" text-anchor="middle" class="axis">19/20 verify solved</text>
<text x="412.25" y="556.00" text-anchor="middle" class="axis">15 SMT cohort</text>
<rect x="587.75" y="490.17" width="42.00" height="1.83" rx="2.00" fill="#E69F00" opacity="1.000"/>
<text x="608.75" y="483.17" text-anchor="middle" class="value">1/192</text>
<rect x="637.75" y="200.50" width="42.00" height="291.50" rx="2.00" fill="#0072B2" opacity="1.000"/>
<text x="658.75" y="193.50" text-anchor="middle" class="value">159/192</text>
<text x="633.75" y="519.00" text-anchor="middle" class="label">plean</text>
<text x="633.75" y="539.00" text-anchor="middle" class="axis">174/192 verify solved</text>
<text x="633.75" y="556.00" text-anchor="middle" class="axis">172 SMT cohort</text>
<rect x="809.25" y="341.84" width="42.00" height="150.16" rx="2.00" fill="#E69F00" opacity="1.000"/>
<text x="830.25" y="334.84" text-anchor="middle" class="value">215/504</text>
<rect x="859.25" y="162.35" width="42.00" height="329.65" rx="2.00" fill="#0072B2" opacity="1.000"/>
<text x="880.25" y="155.35" text-anchor="middle" class="value">472/504</text>
<text x="855.25" y="519.00" text-anchor="middle" class="label">velvet</text>
<text x="855.25" y="539.00" text-anchor="middle" class="axis">480/504 verify solved</text>
<text x="855.25" y="556.00" text-anchor="middle" class="axis">295 SMT cohort</text>
</svg>
